<?xml version="1.0" encoding="UTF-8"?>
<svg version="1.1" xmlns="http://www.w3.org/2000/svg" width="238" height="238">
<path d="M0 0 C1.31725571 -0.00700928 2.63451141 -0.01401855 3.99168396 -0.02124023 C7.564141 -0.03927951 11.13612946 -0.03248778 14.70859337 -0.01972389 C18.47277328 -0.00949428 22.2369169 -0.01901688 26.00109863 -0.02526855 C32.3186757 -0.03251631 38.63606484 -0.02303329 44.95361328 -0.00390625 C52.22522371 0.01785708 59.49638529 0.01080365 66.76798487 -0.01121187 C73.0461439 -0.02944837 79.32416895 -0.03188419 85.60234594 -0.0214572 C89.336743 -0.01526727 93.0709301 -0.01426075 96.80531311 -0.02760315 C100.97333734 -0.04145859 105.1406054 -0.02217837 109.30859375 0 C110.52248276 -0.00809692 111.73637177 -0.01619385 112.98704529 -0.02453613 C126.27408769 0.10557808 137.19049559 3.61590795 147.15429688 12.51757812 C155.59877801 21.14172907 156.74668744 32.86743485 156.671875 44.3515625 C156.6773089 45.70478565 156.68443861 47.05800287 156.69311523 48.41120911 C156.71120139 52.05389243 156.70434283 55.69611772 156.69159889 59.33880806 C156.68139415 63.17066712 156.69088513 67.00248981 156.69714355 70.83435059 C156.7043984 77.26642823 156.69488943 83.69832151 156.67578125 90.13037109 C156.65401655 97.54171384 156.66106947 104.95261626 156.68308687 112.36394835 C156.70130291 118.75413613 156.70376905 125.14419221 156.6933322 131.5343976 C156.68713116 135.3391824 156.68616717 139.14376098 156.69947815 142.9485321 C156.71112704 146.52750199 156.70284873 150.10591026 156.67990112 153.68482018 C156.67218438 155.60654833 156.68389235 157.5283246 156.69641113 159.45002747 C156.58886439 170.59431818 153.96629144 180.28966718 146.15429688 188.51757812 C136.70359864 197.29613618 125.53445395 199.86754714 112.95117188 199.81445312 C106.43295047 199.30479795 100.01394163 197.4474005 94.15429688 194.51757812 C92.68167978 194.42214476 91.20483035 194.38856373 89.72912598 194.38627625 C88.79844299 194.38226807 87.86776001 194.37825989 86.90887451 194.37413025 C85.8844928 194.37465897 84.86011108 194.37518768 83.8046875 194.37573242 C82.18974396 194.37052078 82.18974396 194.37052078 80.54217529 194.36520386 C78.19697082 194.35783667 75.85175933 194.35249644 73.50654602 194.34891319 C69.79023569 194.34175777 66.07405817 194.32609608 62.35778809 194.30757141 C51.78866004 194.25507213 41.21963704 194.20716014 30.65039062 194.19165039 C24.18996566 194.1815475 17.72987121 194.15215832 11.26957703 194.11033058 C8.81054692 194.09804302 6.35147007 194.0928952 3.89241028 194.09512901 C0.44093832 194.09749178 -3.00959301 194.07523781 -6.4609375 194.04760742 C-7.46912537 194.05420883 -8.47731323 194.06081024 -9.51605225 194.06761169 C-20.43797166 193.92476156 -27.91072211 190.25312323 -35.71679688 182.74023438 C-44.44325371 173.6294932 -45.29489325 163.2879384 -45.24975586 151.16430664 C-45.25661911 149.86378357 -45.26348236 148.5632605 -45.27055359 147.22332764 C-45.28837037 143.68396518 -45.28733857 140.14485218 -45.2816112 136.6054585 C-45.27850273 133.63849381 -45.28463008 130.67157591 -45.29064995 127.70461792 C-45.30465574 120.69944136 -45.30316681 113.69438687 -45.29174805 106.68920898 C-45.28026937 99.4886387 -45.29434707 92.28844099 -45.32114452 85.08791977 C-45.34337226 78.88035243 -45.34992309 72.67290144 -45.34406811 66.46529716 C-45.34071432 62.76890914 -45.34300751 59.07275985 -45.36031914 55.37640572 C-45.37880128 51.25078217 -45.36452885 47.12587367 -45.34741211 43.00024414 C-45.35708008 41.79315292 -45.36674805 40.58606171 -45.37670898 39.34239197 C-45.29106461 29.44404197 -43.52257168 20.39172553 -36.40820312 13.08007812 C-35.66699219 12.29761719 -34.92578125 11.51515625 -34.16210938 10.70898438 C-24.26885098 1.3495949 -13.24517818 -0.08834844 0 0 Z M-25.65820312 20.70507812 C-26.20089844 21.23488281 -26.74359375 21.7646875 -27.30273438 22.31054688 C-31.72944762 28.64242785 -32.34234748 35.20939371 -32.52490234 42.69458008 C-32.55798933 43.65467389 -32.59107632 44.6147677 -32.62516594 45.60395527 C-32.94260246 55.62953847 -32.99119494 65.65583035 -32.97851562 75.68554688 C-32.9791927 77.62640902 -32.98016605 79.56727108 -32.98141479 81.50813293 C-32.98287177 85.53399479 -32.98080206 89.55983416 -32.97607422 93.58569336 C-32.97036654 98.68825406 -32.97367543 103.79076224 -32.97964668 108.89332104 C-32.9832971 112.88727702 -32.98209356 116.88122099 -32.97951889 120.87517738 C-32.97886255 122.75462157 -32.97963148 124.63406694 -32.98199844 126.51350975 C-32.98790606 132.51604057 -32.94815664 138.51589365 -32.84570312 144.51757812 C-32.83249779 145.38016361 -32.81929245 146.2427491 -32.80568695 147.13147354 C-32.75594719 149.69412312 -32.67664218 152.25412439 -32.58740234 154.81567383 C-32.57381746 155.57494014 -32.56023258 156.33420645 -32.54623604 157.11648083 C-32.26267172 163.60813731 -30.16774019 168.81950267 -25.91601562 173.75976562 C-19.95507285 178.76312723 -15.71840263 180.61571427 -7.84570312 180.51757812 C-7.83539566 179.81822647 -7.8250882 179.11887482 -7.81446838 178.39833069 C-7.7166528 171.82044149 -7.61416155 165.24264392 -7.50636387 158.66491032 C-7.45110511 155.2829069 -7.39768057 151.90089489 -7.34838867 148.51879883 C-7.29169366 144.63418385 -7.22712728 140.74971935 -7.16210938 136.86523438 C-7.13704063 135.03557884 -7.13704063 135.03557884 -7.11146545 133.16896057 C-7.09152023 132.04787399 -7.07157501 130.92678741 -7.05102539 129.77172852 C-7.03548111 128.77911514 -7.01993683 127.78650177 -7.00392151 126.7638092 C-6.84570312 124.51757812 -6.84570312 124.51757812 -5.84570312 123.51757812 C-3.55581531 123.3586972 -1.26126872 123.26619739 1.03320312 123.20117188 C1.71986557 123.18039078 2.40652802 123.15960968 3.11399841 123.13819885 C5.31482622 123.07263669 7.51577662 123.01378797 9.71679688 122.95507812 C11.20574202 122.9118992 12.69467461 122.86828512 14.18359375 122.82421875 C17.8403708 122.71612662 21.49723635 122.61710438 25.15429688 122.51757812 C25.48429687 112.94757813 25.81429687 103.37757813 26.15429688 93.51757812 C37.37429687 93.18757813 48.59429687 92.85757813 60.15429688 92.51757812 C61.24321556 88.16190339 61.26180285 84.18296238 61.21679688 79.73632812 C61.21301025 78.88582886 61.20922363 78.03532959 61.20532227 77.15905762 C61.1931217 74.44517931 61.1744955 71.73140799 61.15429688 69.01757812 C61.12770421 65.44466419 61.1077046 61.87180384 61.09179688 58.29882812 C61.07934937 57.06900208 61.07934937 57.06900208 61.06665039 55.81433105 C61.05082069 52.13585696 61.25577673 49.1116587 62.15429688 45.51757812 C76.01429688 45.51757812 89.87429687 45.51757812 104.15429688 45.51757812 C104.02929687 64.39257813 104.02929687 64.39257813 103.97412109 70.34912109 C103.96828129 71.90266649 103.96318452 73.45621493 103.95898438 75.00976562 C103.94875244 75.82002197 103.93852051 76.63027832 103.92797852 77.46508789 C103.92734583 79.48399448 104.03114752 81.50243087 104.15429688 83.51757812 C105.97030065 85.76211596 105.97030065 85.76211596 108.56860352 85.72875977 C109.55723389 85.71192139 110.54586426 85.69508301 111.56445312 85.67773438 C113.17223633 85.66129883 113.17223633 85.66129883 114.8125 85.64453125 C116.49762695 85.61262695 116.49762695 85.61262695 118.21679688 85.58007812 C120.43678643 85.54580727 122.6568443 85.51562996 124.87695312 85.49023438 C125.86445557 85.47226807 126.85195801 85.45430176 127.86938477 85.43579102 C130.15429688 85.51757812 130.15429688 85.51757812 131.15429688 86.51757812 C131.22635199 88.20366778 131.23815755 89.89258472 131.21679688 91.58007812 C131.20777344 92.49917969 131.19875 93.41828125 131.18945312 94.36523438 C131.17205078 95.43064453 131.17205078 95.43064453 131.15429688 96.51757812 C130.47850586 96.54263428 129.80271484 96.56769043 129.10644531 96.59350586 C126.03888008 96.70968555 122.9716053 96.8323125 119.90429688 96.95507812 C118.84082031 96.99439453 117.77734375 97.03371094 116.68164062 97.07421875 C115.65683594 97.11611328 114.63203125 97.15800781 113.57617188 97.20117188 C112.63354492 97.23782959 111.69091797 97.2744873 110.71972656 97.31225586 C108.40386868 97.49760383 106.39074606 97.92533572 104.15429688 98.51757812 C104.08489185 109.56561989 104.03153404 120.61361009 103.99886036 131.66182518 C103.98318135 136.79155534 103.96190245 141.92113673 103.92797852 147.05078125 C103.89546458 151.9979868 103.87746071 156.94504894 103.86966515 161.89235306 C103.86410727 163.78307987 103.8532546 165.67379854 103.8371067 167.56446457 C103.81543809 170.20574874 103.81232548 172.84643472 103.8137207 175.48779297 C103.80293488 176.27541519 103.79214905 177.06303741 103.78103638 177.87452698 C103.75934635 180.27049519 103.75934635 180.27049519 104.15429688 183.51757812 C107.92389822 186.03064569 110.97263841 185.86183345 115.34179688 185.83007812 C116.10975586 185.82588867 116.87771484 185.82169922 117.66894531 185.81738281 C125.35944982 185.66350724 131.57019425 184.25260244 137.15429688 178.51757812 C141.15605542 172.37323498 143.26892491 167.4027912 143.3014679 160.04119873 C143.3086232 158.92817886 143.3157785 157.815159 143.32315063 156.66841125 C143.32583954 155.45171249 143.32852844 154.23501373 143.33129883 152.98144531 C143.34115562 151.05400734 143.34115562 151.05400734 143.35121155 149.08763123 C143.37220851 144.8299178 143.38260982 140.57220419 143.39257812 136.31445312 C143.39662731 134.84609204 143.40074428 133.37773113 143.40492821 131.90937042 C143.42397027 125.00985045 143.43820338 118.11034111 143.44654018 111.21079993 C143.45630936 103.25812316 143.48262444 95.30572496 143.52304107 87.35314631 C143.55324259 81.19842446 143.56801286 75.04378228 143.57132119 68.88898778 C143.57366706 65.21660437 143.58256669 61.5445189 143.60778236 57.87221527 C143.63548429 53.77172935 143.63121968 49.67186273 143.62426758 45.57128906 C143.63707764 44.36268723 143.6498877 43.15408539 143.66308594 41.90885925 C143.61273941 33.7570667 142.52724361 28.31893133 136.97070312 22.05664062 C136.22691406 21.425 135.483125 20.79335938 134.71679688 20.14257812 C133.97558594 19.49546875 133.234375 18.84835938 132.47070312 18.18164062 C128.20152836 15.1147461 124.54557649 14.26748249 119.32987976 14.25688171 C117.58256058 14.2462545 117.58256058 14.2462545 115.79994202 14.2354126 C114.5307341 14.23789001 113.26152618 14.24036743 111.95385742 14.24291992 C110.59665649 14.23857017 109.23945802 14.23338614 107.88226318 14.22743225 C104.20235967 14.21405702 100.52255895 14.21346209 96.84263587 14.21599555 C93.76629431 14.2170666 90.68997344 14.21217829 87.61363631 14.20739013 C80.35219033 14.19629933 73.09079606 14.19585466 65.8293457 14.2019043 C58.34998084 14.20793996 50.8708043 14.19564254 43.39147156 14.17433423 C36.96071353 14.15669006 30.53001527 14.15072143 24.09923393 14.15397197 C20.26261863 14.15578102 16.42613758 14.15318689 12.5895443 14.13925743 C8.9787614 14.12663831 5.36827072 14.12866143 1.75749207 14.14166832 C-0.18993397 14.14514384 -2.13736909 14.13388529 -4.08476257 14.12210083 C-12.15476187 14.17034392 -19.68235296 14.58383015 -25.65820312 20.70507812 Z M73.15429688 58.51757812 C73.15429688 99.10757813 73.15429688 139.69757813 73.15429688 181.51757812 C82.98907349 182.43571462 82.98907349 182.43571462 92.15429688 180.51757812 C92.17762611 164.62802685 92.19527617 148.73848018 92.20610905 132.84891605 C92.21127195 125.47161856 92.21831454 118.09433169 92.22973633 110.71704102 C92.23968333 104.28925632 92.24615034 97.86147932 92.24838537 91.43368715 C92.24969245 88.02818534 92.25277812 84.62270554 92.26002693 81.21721077 C92.26723293 77.42156771 92.268288 73.625971 92.26782227 69.83032227 C92.27141754 68.69312744 92.27501282 67.55593262 92.27871704 66.38427734 C92.27734238 65.35637589 92.27596771 64.32847443 92.27455139 63.26942444 C92.27547318 62.37067628 92.27639498 61.47192812 92.2773447 60.54594517 C92.37950939 58.52179317 92.37950939 58.52179317 91.15429688 57.51757812 C88.68447919 57.41737072 86.24878464 57.37880775 83.77929688 57.39257812 C83.09351563 57.38871094 82.40773438 57.38484375 81.70117188 57.38085938 C78.58207049 57.38692767 76.13454053 57.52416357 73.15429688 58.51757812 Z M38.15429688 105.51757812 C37.17718538 109.42602412 37.03366044 112.47862651 37.04077148 116.48925781 C37.04062546 117.18234543 37.04047943 117.87543304 37.04032898 118.58952332 C37.04102381 120.87286545 37.04879603 123.15612529 37.05664062 125.43945312 C37.05850633 127.02557328 37.05992952 128.61169401 37.06092834 130.19781494 C37.06474149 134.36693928 37.07456151 138.53602862 37.08563232 142.70513916 C37.0958723 146.96162442 37.10043151 151.21811534 37.10546875 155.47460938 C37.11618486 163.82228166 37.13324684 172.16992554 37.15429688 180.51757812 C40.59088395 180.74338166 44.02846906 180.9452051 47.46679688 181.14257812 C48.44326172 181.20703125 49.41972656 181.27148438 50.42578125 181.33789062 C51.8324707 181.41523438 51.8324707 181.41523438 53.26757812 181.49414062 C54.56369019 181.57269287 54.56369019 181.57269287 55.88598633 181.65283203 C58.43903987 181.69188778 58.43903987 181.69188778 61.15429688 179.51757812 C61.59895449 177.32870503 61.59895449 177.32870503 61.51074219 174.75854492 C61.51374329 173.76537766 61.51674438 172.77221039 61.51983643 171.74894714 C61.50748962 170.66583755 61.49514282 169.58272797 61.48242188 168.46679688 C61.48054871 167.34304153 61.47867554 166.21928619 61.47674561 165.06147766 C61.47000326 162.66636213 61.45604602 160.271258 61.43554688 157.8762207 C61.40498452 154.28586082 61.39463076 150.69594457 61.38867188 147.10546875 C61.34096058 133.21244659 60.92049782 119.38952259 60.15429688 105.51757812 C52.89429687 105.51757812 45.63429688 105.51757812 38.15429688 105.51757812 Z M4.15429688 135.51757812 C4.15429688 150.36757812 4.15429688 165.21757812 4.15429688 180.51757812 C7.0835631 181.98221124 9.70686468 181.64940521 12.96679688 181.64257812 C14.19011719 181.64515625 15.4134375 181.64773437 16.67382812 181.65039062 C20.43428801 181.59901796 20.43428801 181.59901796 25.15429688 180.51757812 C25.15429688 165.66757813 25.15429688 150.81757813 25.15429688 135.51757812 C18.22429687 135.51757812 11.29429688 135.51757812 4.15429688 135.51757812 Z " fill="#5975DB" transform="translate(61.845703125,25.482421875)"/>
<path d="M0 0 C7.02453826 0.9646373 12.52150238 5.75008355 16.8125 11.25 C22.49086993 20.36800807 23.58639172 29.27071262 23.51757812 39.83398438 C23.52301202 41.18720752 23.53014174 42.54042474 23.53881836 43.89363098 C23.55690452 47.5363143 23.55004596 51.1785396 23.53730202 54.82122993 C23.52709728 58.65308899 23.53658826 62.48491168 23.54284668 66.31677246 C23.55010152 72.74885011 23.54059255 79.18074338 23.52148438 85.61279297 C23.49971967 93.02413571 23.50677259 100.43503813 23.52879 107.84637022 C23.54700603 114.23655801 23.54947218 120.62661409 23.53903532 127.01681948 C23.53283429 130.82160427 23.5318703 134.62618285 23.54518127 138.43095398 C23.55683017 142.00992387 23.54855186 145.58833214 23.52560425 149.16724205 C23.5178875 151.0889702 23.52959548 153.01074647 23.54211426 154.93244934 C23.43485095 166.04737058 20.83064053 175.81015578 13 184 C8.78743125 187.7070605 4.24099431 190.92797899 -1 193 C-1.99 192.67 -2.98 192.34 -4 192 C-4.2165625 191.0409375 -4.2165625 191.0409375 -4.4375 190.0625 C-4.80104993 187.79688294 -4.80104993 187.79688294 -7.0625 186.75 C-8.0215625 186.37875 -8.0215625 186.37875 -9 186 C-9 185.01 -9 184.02 -9 183 C-10.00160156 183.02320313 -11.00320312 183.04640625 -12.03515625 183.0703125 C-13.37759664 183.08908789 -14.72004518 183.10728618 -16.0625 183.125 C-17.37347656 183.14820313 -18.68445313 183.17140625 -20.03515625 183.1953125 C-24.11824299 182.99417522 -27.14999053 182.27165462 -31 181 C-31 180.01 -31 179.02 -31 178 C-32.32 178.99 -33.64 179.98 -35 181 C-35.1953125 178.94921875 -35.390625 176.8984375 -35.5859375 174.84765625 C-35.72257812 174.23792969 -35.85921875 173.62820312 -36 173 C-36.66 172.67 -37.32 172.34 -38 172 C-38.309375 172.804375 -38.61875 173.60875 -38.9375 174.4375 C-40 177 -40 177 -41 178 C-42.51928038 178.07179964 -44.04167482 178.08392007 -45.5625 178.0625 C-46.38878906 178.05347656 -47.21507812 178.04445312 -48.06640625 178.03515625 C-48.70449219 178.02355469 -49.34257812 178.01195312 -50 178 C-50 177.34 -50 176.68 -50 176 C-47.03 176 -44.06 176 -41 176 C-41.33 135.74 -41.66 95.48 -42 54 C-47.94 54 -53.88 54 -60 54 C-60 94.59 -60 135.18 -60 177 C-60.66 176.67 -61.32 176.34 -62 176 C-62.33 135.74 -62.66 95.48 -63 54 C-64.32 53.34 -65.64 52.68 -67 52 C-67 51.01 -67 50.02 -67 49 C-67.99 49.495 -67.99 49.495 -69 50 C-70.832846 59.28950459 -70.33659454 69.32817882 -70.60546875 78.76367188 C-70.64285156 79.92576172 -70.68023437 81.08785156 -70.71875 82.28515625 C-70.76418945 83.86115601 -70.76418945 83.86115601 -70.81054688 85.46899414 C-71 88 -71 88 -72 90 C-76.62 90 -81.24 90 -86 90 C-86 89.34 -86 88.68 -86 88 C-79.565 87.505 -79.565 87.505 -73 87 C-73.01047363 85.75387939 -73.02094727 84.50775879 -73.03173828 83.22387695 C-73.06798744 78.59272138 -73.09091844 73.9615783 -73.10986328 69.33032227 C-73.11990963 67.32737111 -73.13354909 65.32443458 -73.15087891 63.3215332 C-73.17518713 60.43957912 -73.18649687 57.55781928 -73.1953125 54.67578125 C-73.20563507 53.78288895 -73.21595764 52.88999664 -73.22659302 51.970047 C-73.22739134 47.5282743 -73.10378748 44.03650573 -71 40 C-65.35834639 39.92589273 -59.71697553 39.87141833 -54.07495117 39.83520508 C-52.15530462 39.8201102 -50.2356926 39.79963227 -48.31616211 39.77368164 C-45.55834436 39.73732891 -42.8009822 39.72028088 -40.04296875 39.70703125 C-39.18350143 39.69154739 -38.32403412 39.67606354 -37.43852234 39.66011047 C-36.63791885 39.65988388 -35.83731537 39.65965729 -35.01245117 39.65942383 C-33.95655037 39.64943108 -33.95655037 39.64943108 -32.87931824 39.63923645 C-30.38042231 40.1189373 -29.50697592 40.97542959 -28 43 C-27.75047967 45.78899937 -27.67477312 48.34935339 -27.7421875 51.1328125 C-27.75211227 52.32147415 -27.75211227 52.32147415 -27.76223755 53.53414917 C-27.78564753 56.06482746 -27.82937751 58.59463284 -27.875 61.125 C-27.91000858 63.6624026 -27.94078221 66.19975887 -27.96633911 68.73727417 C-27.98337993 70.31655793 -28.00657315 71.895789 -28.03634644 73.47488403 C-28.06162276 75.31645575 -28.0360116 77.15860693 -28 79 C-26.96609948 80.2610205 -26.96609948 80.2610205 -24.71508789 80.08178711 C-23.72758545 80.0638208 -22.74008301 80.04585449 -21.72265625 80.02734375 C-20.65208984 80.01509766 -19.58152344 80.00285156 -18.47851562 79.99023438 C-16.20501345 79.95513743 -13.93156878 79.91608822 -11.65820312 79.87304688 C-10.05041992 79.85661133 -10.05041992 79.85661133 -8.41015625 79.83984375 C-7.42152588 79.82300537 -6.43289551 79.80616699 -5.41430664 79.78881836 C-3 80 -3 80 -1 82 C-0.76953125 84.34765625 -0.76953125 84.34765625 -0.8125 87.0625 C-0.81894531 87.96097656 -0.82539063 88.85945313 -0.83203125 89.78515625 C-1 92 -1 92 -2 93 C-3.99782126 93.15825258 -6.00088834 93.25119171 -8.00390625 93.31640625 C-9.21884766 93.35830078 -10.43378906 93.40019531 -11.68554688 93.44335938 C-12.96494141 93.48267578 -14.24433594 93.52199219 -15.5625 93.5625 C-16.84576172 93.60568359 -18.12902344 93.64886719 -19.45117188 93.69335938 C-22.63399853 93.799848 -25.81690674 93.90185962 -29 94 C-28.83734146 94.66182785 -28.67468292 95.3236557 -28.50709534 96.00553894 C-27.88884285 99.65639683 -27.86830538 103.22180276 -27.88647461 106.91137695 C-27.88632858 107.69239273 -27.88618256 108.47340851 -27.8860321 109.27809143 C-27.8867263 111.84818339 -27.89449554 114.41820202 -27.90234375 116.98828125 C-27.90420968 118.77475444 -27.90563276 120.56122814 -27.90663147 122.34770203 C-27.91044284 127.04124371 -27.92026133 131.73475427 -27.93133545 136.42828369 C-27.94157925 141.22106505 -27.94613545 146.01385146 -27.95117188 150.80664062 C-27.96188486 160.20444073 -27.97894469 169.60221777 -28 179 C-22.41959981 181.79020009 -12.36796654 180.6127962 -6.2734375 179.50390625 C1.04866717 177.00195157 4.6621996 171.55639365 8 165 C9.05019744 161.75080216 9.12339478 158.75994325 9.12025452 155.355896 C9.12162918 154.20607239 9.12300385 153.05624878 9.12442017 151.87158203 C9.12082489 150.6142627 9.11722961 149.35694336 9.11352539 148.06152344 C9.11324325 146.72104901 9.11340179 145.38057443 9.1139679 144.0401001 C9.11425481 140.40407574 9.10837518 136.76808437 9.10139394 133.13206768 C9.09514279 129.33106847 9.0945552 125.5300685 9.09336853 121.72906494 C9.09026042 114.5326663 9.08205402 107.33628286 9.07201904 100.13989091 C9.06084178 91.94648576 9.05534338 83.75307989 9.05032361 75.55966902 C9.03987099 58.70643722 9.02228159 41.85322022 9 25 C12.32693928 28.32693928 12.12598992 31.77079215 12.14044189 36.3177948 C12.14615204 37.39571289 12.15186218 38.47363098 12.15774536 39.58421326 C12.15942215 41.3508004 12.15942215 41.3508004 12.16113281 43.15307617 C12.16858017 45.01958328 12.16858017 45.01958328 12.17617798 46.92379761 C12.18827744 50.33522896 12.19574269 53.74659907 12.20018864 57.15804458 C12.20312396 59.29221277 12.2072297 61.42637565 12.21169281 63.56054115 C12.22536341 70.24595813 12.23503143 76.93136288 12.2388947 83.61679286 C12.24337043 91.31867912 12.26089748 99.02038746 12.2898953 106.72221965 C12.31156138 112.68502797 12.32160165 118.64778643 12.32293582 124.61063367 C12.3239806 128.16729761 12.32981791 131.72379421 12.34775543 135.28041649 C12.36740432 139.25365215 12.36292753 143.22666824 12.35644531 147.19995117 C12.3656601 148.36755478 12.37487488 149.53515839 12.3843689 150.73814392 C12.35384879 156.72262391 11.85208221 161.69637678 9.64371872 167.28593922 C8.88280789 169.00689473 8.88280789 169.00689473 9 171 C9.66 171 10.32 171 11 171 C12 172 13 173 14 174 C14.66 174 15.32 174 16 174 C16.99 171.69 17.98 169.38 19 167 C19.66 167 20.32 167 21 167 C21.09362864 149.06667117 21.1640697 131.13340617 21.20724869 113.19988537 C21.22783437 104.87218724 21.25587811 96.54464138 21.30175781 88.21704102 C21.34174842 80.95487766 21.36746181 73.69282463 21.37635398 66.43055421 C21.38154816 62.58865174 21.39367186 58.74706479 21.42292023 54.9052639 C21.45028322 51.28138804 21.45840345 47.6579545 21.45243073 44.03398514 C21.45403779 42.08584671 21.47545049 40.13775529 21.49768066 38.18974304 C21.45111739 28.15766043 19.49153826 18.93410232 13 11 C8.98227391 7.08377436 4.90221429 3.75749554 0 1 C0 0.67 0 0.34 0 0 Z M-9 187 C-7 188 -7 188 -7 188 Z " fill="#556FD7" transform="translate(195,30)"/>
<path d="M0 0 C1.40720283 -0.00350817 2.81440167 -0.00917456 4.22158813 -0.01681519 C8.01506828 -0.03097071 11.80781551 -0.01409524 15.60122538 0.00946999 C19.58529179 0.02969195 23.56933113 0.0236937 27.55343628 0.0213623 C34.23952204 0.02141574 40.92532393 0.04109479 47.61132812 0.07324219 C55.32655737 0.11015936 63.04141556 0.11891215 70.75672162 0.11194468 C78.20090088 0.10562719 85.64495378 0.11641503 93.08910751 0.13591003 C96.24760625 0.144056 99.40604015 0.14679879 102.56454849 0.1452179 C106.28625081 0.14433524 110.00760367 0.15865674 113.72921371 0.18444443 C115.73619645 0.19495385 117.74323897 0.19094923 119.75024414 0.18643188 C131.65348381 0.29825203 140.59441175 3.71858143 149.46044922 11.74023438 C155.75217247 18.29111327 158.89650905 27.23455199 158.89993286 36.19445801 C158.90275269 37.33008682 158.90557251 38.46571564 158.90847778 39.63575745 C158.90544144 41.49828407 158.90544144 41.49828407 158.90234375 43.3984375 C158.90497223 45.36477394 158.90497223 45.36477394 158.90765381 47.37083435 C158.91221167 50.96373609 158.91044534 54.5566091 158.90727472 58.14951134 C158.90474263 61.90993706 158.90709103 65.67036032 158.90866089 69.43078613 C158.9104801 75.74569134 158.90808278 82.06058485 158.90332031 88.37548828 C158.89787817 95.67591619 158.899641 102.97631618 158.90514672 110.27674341 C158.90968492 116.5452023 158.91032493 122.81365279 158.90770805 129.08211279 C158.90614918 132.82578839 158.90594087 136.56945086 158.90924454 140.31312561 C158.91266984 144.48611098 158.90792194 148.65904821 158.90234375 152.83203125 C158.90436798 154.07371567 158.90639221 155.31540009 158.90847778 156.5947113 C158.90565796 157.73034012 158.90283813 158.86596893 158.89993286 160.03601074 C158.89936732 161.51599171 158.89936732 161.51599171 158.89879036 163.02587128 C158.78452994 165.37694435 158.44285938 167.36710663 157.77294922 169.61523438 C157.11294922 169.61523438 156.45294922 169.61523438 155.77294922 169.61523438 C155.58732422 170.75992188 155.58732422 170.75992188 155.39794922 171.92773438 C154.77294922 174.61523438 154.77294922 174.61523438 152.77294922 177.61523438 C151.12294922 176.95523438 149.47294922 176.29523438 147.77294922 175.61523438 C147.77294922 174.95523438 147.77294922 174.29523438 147.77294922 173.61523438 C146.45294922 173.94523438 145.13294922 174.27523437 143.77294922 174.61523438 C144.52164714 173.05273438 145.27034505 171.49023438 146.01904297 169.92773438 C148.38300115 162.67662947 147.91571551 154.7665363 147.90234375 147.23583984 C147.90409607 146.0153595 147.90584839 144.79487915 147.90765381 143.53741455 C147.91128539 140.21112314 147.91045617 136.88489444 147.90727472 133.55860662 C147.90473053 130.06740076 147.90709427 126.57619744 147.90866089 123.08499146 C147.9104761 117.22608971 147.90809278 111.3672006 147.90332031 105.50830078 C147.89787385 98.7440556 147.89964574 91.97984054 147.90514672 85.21559608 C147.90969025 79.39457978 147.91032247 73.57357252 147.90770805 67.75255501 C147.90615276 64.28162462 147.90593108 60.81070837 147.90924454 57.3397789 C147.91267973 53.47178737 147.90791326 49.60382939 147.90234375 45.73583984 C147.9053801 44.01976028 147.9053801 44.01976028 147.90847778 42.26901245 C147.89515887 37.27708399 147.84841207 32.51790114 146.77294922 27.61523438 C146.11294922 27.61523438 145.45294922 27.61523438 144.77294922 27.61523438 C143.33544922 26.00585938 143.33544922 26.00585938 141.77294922 23.86523438 C141.25732422 23.16914062 140.74169922 22.47304688 140.21044922 21.75585938 C138.77294922 19.61523438 138.77294922 19.61523438 137.91925049 17.62004852 C135.73181628 13.79435352 131.85357901 12.77232677 127.77294922 11.61523438 C123.25073503 11.06563738 118.77741339 11.06803032 114.22607422 11.09765625 C112.87975308 11.09222583 111.53343789 11.08509803 110.18713379 11.07641602 C106.55479667 11.05828859 102.92291753 11.06520581 99.29057312 11.07793236 C95.47511635 11.08811536 91.65969672 11.07865206 87.84423828 11.0723877 C81.43889381 11.06512662 75.0337343 11.07465834 68.62841797 11.09375 C61.24093426 11.11551592 53.85389224 11.10846345 46.46641922 11.08644438 C40.10432806 11.06824626 33.74236926 11.06575351 27.38026047 11.07619905 C23.58892333 11.08240986 19.79779326 11.08333666 16.00646973 11.0700531 C12.44066365 11.05843058 8.87542266 11.06663542 5.30967712 11.08963013 C3.38993082 11.09737347 1.47013629 11.08561612 -0.44958496 11.07312012 C-9.26004392 11.1587506 -14.95236682 13.14907055 -22.47705078 17.49023438 C-25.22705078 18.61523438 -25.22705078 18.61523438 -28.10205078 17.80273438 C-28.80330078 17.41085938 -29.50455078 17.01898438 -30.22705078 16.61523438 C-30.22705078 17.93523438 -30.22705078 19.25523438 -30.22705078 20.61523438 C-30.88705078 21.27523437 -31.54705078 21.93523438 -32.22705078 22.61523438 C-32.88705078 22.61523438 -33.54705078 22.61523438 -34.22705078 22.61523438 C-34.88705078 23.27523437 -35.54705078 23.93523438 -36.22705078 24.61523438 C-36.88705078 24.28523438 -37.54705078 23.95523438 -38.22705078 23.61523438 C-35.35017665 14.40923717 -28.10157057 7.64775322 -19.91311646 3.00915527 C-13.36425192 -0.19590341 -7.17629439 -0.07332976 0 0 Z " fill="#5B78DE" transform="translate(58.22705078125,27.384765625)"/>
<path d="M0 0 C1.33543463 -0.00379521 2.6708653 -0.00930506 4.00628662 -0.01637268 C7.59095642 -0.03018429 11.17513858 -0.01926175 14.75978065 -0.00266147 C18.53336327 0.01132153 22.30692135 0.00471436 26.08052063 0.00120544 C32.41069278 -0.00148533 38.74067407 0.01188409 45.07080078 0.03515625 C52.36627059 0.06179346 59.66142231 0.0634979 66.95692414 0.05176789 C74.00971802 0.04095397 81.062398 0.0472032 88.11518288 0.06132317 C91.1017816 0.06704826 94.08829602 0.06702801 97.07489586 0.06225777 C101.25062472 0.05655776 105.42588647 0.07589264 109.6015625 0.09765625 C110.82623734 0.0931546 112.05091217 0.08865295 113.31269836 0.08401489 C120.40499226 0.14522135 126.45108789 1.00671865 133.10668945 3.50170898 C129.80611324 4.60190105 129.29049786 4.33819144 126.10668945 3.50170898 C124.15287112 3.40082201 122.19600283 3.35397257 120.23962402 3.34107971 C119.0398291 3.33103409 117.84003418 3.32098846 116.60388184 3.31063843 C115.29060913 3.30480743 113.97733643 3.29897644 112.62426758 3.29296875 C111.22444426 3.28342555 109.82462328 3.27353419 108.42480469 3.26332092 C103.82921126 3.23197786 99.23360002 3.21166807 94.63793945 3.19311523 C93.854569 3.18981791 93.07119854 3.18652059 92.26408958 3.18312335 C84.86744442 3.15233499 77.47079502 3.12564349 70.07410431 3.10870457 C60.63527114 3.0868312 51.19700917 3.04492752 41.75840425 2.97526699 C35.11021145 2.92788041 28.4621719 2.90375127 21.81381559 2.89650768 C17.8494013 2.89157191 13.88563125 2.87669206 9.92140198 2.83676338 C6.18485517 2.79962458 2.44931322 2.7915748 -1.28738403 2.80476952 C-3.29378281 2.80469072 -5.30011412 2.77501405 -7.30627441 2.74407959 C-17.02748628 2.82116786 -25.08146974 5.06383888 -32.36199188 11.77852726 C-36.28882934 15.95544252 -39.29239195 20.40824339 -41.89331055 25.50170898 C-39.91331055 24.84170898 -37.93331055 24.18170898 -35.89331055 23.50170898 C-35.89331055 22.51170898 -35.89331055 21.52170898 -35.89331055 20.50170898 C-34.39331055 18.31420898 -34.39331055 18.31420898 -32.89331055 16.50170898 C-32.23331055 17.49170898 -31.57331055 18.48170898 -30.89331055 19.50170898 C-26.5719296 18.2052947 -22.70728371 16.48534387 -18.7253418 14.40405273 C-15.14835793 12.64225471 -12.29197721 12.36967273 -8.36082458 12.34780884 C-7.20999893 12.33920837 -6.05917328 12.33060791 -4.87347412 12.32174683 C-3.60956848 12.31748688 -2.34566284 12.31322693 -1.04345703 12.30883789 C0.30035106 12.30093449 1.64415705 12.29266539 2.98796082 12.28405762 C7.40381855 12.2578551 11.81968565 12.24252726 16.2355957 12.22827148 C17.75808149 12.22291023 19.28056723 12.21753271 20.8030529 12.21213913 C27.13997991 12.19050899 33.4769044 12.1717755 39.81385899 12.16051674 C48.88086301 12.14429966 57.94743701 12.11117848 67.01427895 12.05411589 C73.39660847 12.01532598 79.77882344 11.99587313 86.1612677 11.99059618 C89.96905658 11.98695375 93.77638663 11.97505274 97.58404732 11.94249344 C101.1719401 11.91225417 104.75910029 11.90615642 108.34709358 11.9178772 C110.27751689 11.91820057 112.20789605 11.89383832 114.13815308 11.86849976 C121.9681863 11.92414299 127.45697733 13.31326122 134.10668945 17.50170898 C133.77668945 18.16170898 133.44668945 18.82170898 133.10668945 19.50170898 C131.54561462 18.52723061 131.54561462 18.52723061 129.95300293 17.5330658 C124.01767134 14.59051286 118.06665454 14.95005549 111.56567383 15 C110.20802756 14.99621114 108.85038517 14.99070644 107.49275208 14.98362732 C103.82528407 14.96972903 100.15828817 14.98080236 96.49084663 14.99733853 C92.64155892 15.01124846 88.79229698 15.00472221 84.94299316 15.00120544 C78.4803919 14.998508 72.01797686 15.0119387 65.55541992 15.03515625 C58.09812606 15.06176313 50.64114341 15.06351138 43.18381834 15.05176789 C35.99167137 15.0409652 28.79963628 15.04719667 21.60749817 15.06132317 C18.55505203 15.06706142 15.50268836 15.06701739 12.45024109 15.06225777 C8.85169481 15.0574633 5.25348657 15.06769092 1.6550045 15.08921242 C-0.28521234 15.09737406 -2.2254736 15.09095548 -4.16569519 15.08401489 C-11.63766078 15.14732272 -18.11753225 15.41662184 -24.13549805 20.33374023 C-24.67432617 20.98729492 -25.2131543 21.64084961 -25.76831055 22.31420898 C-26.32260742 22.9600293 -26.8769043 23.60584961 -27.44799805 24.27124023 C-31.15365523 29.98997064 -31.29176216 35.95561106 -31.51000977 42.55371094 C-31.54760847 43.52282819 -31.58520718 44.49194544 -31.62394524 45.49042988 C-31.98521763 55.54967762 -32.03884643 65.60509778 -32.02612305 75.66967773 C-32.02680013 77.61053988 -32.02777347 79.55140194 -32.02902222 81.49226379 C-32.03047919 85.51812565 -32.02840949 89.54396502 -32.02368164 93.56982422 C-32.01797396 98.67238492 -32.02128285 103.7748931 -32.0272541 108.8774519 C-32.03090452 112.87140788 -32.02970098 116.86535185 -32.02712631 120.85930824 C-32.02646997 122.73875243 -32.0272389 124.6181978 -32.02960587 126.49764061 C-32.03551348 132.50017143 -31.99576406 138.50002451 -31.89331055 144.50170898 C-31.88010521 145.36429447 -31.86689987 146.22687996 -31.85329437 147.1156044 C-31.80355461 149.67825398 -31.72424961 152.23825525 -31.63500977 154.79980469 C-31.62142488 155.559071 -31.60784 156.31833731 -31.59384346 157.10061169 C-31.28566294 164.15580848 -28.83315206 169.74330237 -23.89331055 174.81420898 C-20.69010333 177.39287784 -17.62523456 178.24723474 -13.64331055 179.16967773 C-12.5656543 179.42386475 -11.48799805 179.67805176 -10.37768555 179.93994141 C-9.5578418 180.12532471 -8.73799805 180.31070801 -7.89331055 180.50170898 C-7.89775177 179.80457794 -7.90219299 179.1074469 -7.9067688 178.38919067 C-7.94680641 171.82643172 -7.97727496 165.26370674 -7.99693489 158.70085335 C-8.00738197 155.32663904 -8.02155779 151.95252547 -8.04418945 148.57836914 C-8.0683594 144.70122581 -8.07977565 140.82422622 -8.08862305 136.94702148 C-8.09894562 135.73241241 -8.10926819 134.51780334 -8.11990356 133.26638794 C-8.12013016 131.58487137 -8.12013016 131.58487137 -8.12036133 129.86938477 C-8.12480255 128.878992 -8.12924377 127.88859924 -8.13381958 126.86819458 C-7.89331055 124.50170898 -7.89331055 124.50170898 -5.89331055 122.50170898 C-2.82055664 122.2746582 -2.82055664 122.2746582 1.08325195 122.30639648 C1.76849945 122.30922638 2.45374695 122.31205627 3.15975952 122.31497192 C5.35057972 122.32617617 7.54099261 122.3512804 9.73168945 122.37670898 C11.21605855 122.38673851 12.70043405 122.3958644 14.18481445 122.40405273 C17.82557206 122.42611604 21.46609102 122.46064723 25.10668945 122.50170898 C25.090979 121.69950928 25.07526855 120.89730957 25.05908203 120.07080078 C24.99680363 116.44367494 24.95772082 112.81666149 24.91918945 109.18920898 C24.89405273 107.92657227 24.86891602 106.66393555 24.84301758 105.36303711 C24.83334961 104.15454102 24.82368164 102.94604492 24.8137207 101.70092773 C24.79801025 100.58548584 24.7822998 99.47004395 24.76611328 98.32080078 C25.10668945 95.50170898 25.10668945 95.50170898 26.40161133 93.63256836 C29.26982748 91.73028067 32.47971652 92.19351389 35.79418945 92.31420898 C36.49608398 92.32774414 37.19797852 92.3412793 37.92114258 92.35522461 C39.64998774 92.39050716 41.37843711 92.44431315 43.10668945 92.50170898 C42.77668945 93.16170898 42.44668945 93.82170898 42.10668945 94.50170898 C37.48668945 94.50170898 32.86668945 94.50170898 28.10668945 94.50170898 C28.04610352 96.58354492 27.98551758 98.66538086 27.9230957 100.81030273 C27.86053539 102.819184 27.79794171 104.82806439 27.734375 106.83691406 C27.69097512 108.23660098 27.64930382 109.63634258 27.609375 111.03613281 C27.55179501 113.04432393 27.48754945 115.05232048 27.4230957 117.06030273 C27.38643799 118.27000732 27.34978027 119.47971191 27.31201172 120.72607422 C27.10668945 123.50170898 27.10668945 123.50170898 26.10668945 124.50170898 C23.73330306 124.66142875 21.38550673 124.76095228 19.0090332 124.81811523 C17.94574547 124.84928688 17.94574547 124.84928688 16.86097717 124.88108826 C14.58881641 124.94665496 12.31653681 125.00550129 10.04418945 125.06420898 C8.50706762 125.10738747 6.96995795 125.15100154 5.43286133 125.19506836 C1.65759355 125.30234347 -2.11779414 125.40359036 -5.89331055 125.50170898 C-5.90361801 126.20106064 -5.91392548 126.90041229 -5.92454529 127.62095642 C-6.02236087 134.19884562 -6.12485212 140.77664319 -6.2326498 147.35437679 C-6.28790857 150.73638021 -6.34133311 154.11839222 -6.390625 157.50048828 C-6.44732001 161.38510326 -6.51188639 165.26956776 -6.5769043 169.15405273 C-6.60197304 170.98370827 -6.60197304 170.98370827 -6.62754822 172.85032654 C-6.64749344 173.97141312 -6.66743866 175.09249969 -6.68798828 176.24755859 C-6.70353256 177.24017197 -6.71907684 178.23278534 -6.73509216 179.25547791 C-6.89331055 181.50170898 -6.89331055 181.50170898 -7.89331055 182.50170898 C-13.88344245 182.56598079 -19.17098059 181.31883482 -23.89331055 177.50170898 C-26.40201064 174.96648987 -28.65916579 172.27914453 -30.89331055 169.50170898 C-32.06893555 168.14045898 -32.06893555 168.14045898 -33.26831055 166.75170898 C-34.83294208 164.58529609 -35.50529612 163.12080638 -35.89331055 160.50170898 C-36.22331055 162.15170898 -36.55331055 163.80170898 -36.89331055 165.50170898 C-38.21331055 165.50170898 -39.53331055 165.50170898 -40.89331055 165.50170898 C-40.37768555 165.89358398 -39.86206055 166.28545898 -39.33081055 166.68920898 C-38.85643555 167.28733398 -38.38206055 167.88545898 -37.89331055 168.50170898 C-38.20581055 171.18920898 -38.20581055 171.18920898 -38.89331055 173.50170898 C-41.41590116 171.52750764 -41.88629134 170.53425256 -42.58081055 167.31420898 C-42.68393555 166.38608398 -42.78706055 165.45795898 -42.89331055 164.50170898 C-43.55331055 164.50170898 -44.21331055 164.50170898 -44.89331055 164.50170898 C-44.98694965 147.08991116 -45.0573853 129.67819246 -45.10055923 112.26620007 C-45.12114273 104.18063605 -45.14918221 96.09522891 -45.19506836 88.00976562 C-45.23506575 80.95855308 -45.26077395 73.90745422 -45.26966453 66.85613137 C-45.27485758 63.12600739 -45.28697387 59.3962085 -45.31623077 55.66618919 C-45.34870545 51.49167121 -45.34926174 47.31771047 -45.34741211 43.14306641 C-45.36898376 41.30886391 -45.36898376 41.30886391 -45.39099121 39.43760681 C-45.34344387 29.48453844 -43.6128797 20.41974106 -36.45581055 13.06420898 C-35.71459961 12.28174805 -34.97338867 11.49928711 -34.2097168 10.69311523 C-24.29876642 1.31698848 -13.266885 -0.10525489 0 0 Z " fill="#5A76D8" transform="translate(61.893310546875,25.498291015625)"/>
<path d="M0 0 C7.02453826 0.9646373 12.52150238 5.75008355 16.8125 11.25 C22.49086993 20.36800807 23.58639172 29.27071262 23.51757812 39.83398438 C23.52301202 41.18720752 23.53014174 42.54042474 23.53881836 43.89363098 C23.55690452 47.5363143 23.55004596 51.1785396 23.53730202 54.82122993 C23.52709728 58.65308899 23.53658826 62.48491168 23.54284668 66.31677246 C23.55010152 72.74885011 23.54059255 79.18074338 23.52148438 85.61279297 C23.49971967 93.02413571 23.50677259 100.43503813 23.52879 107.84637022 C23.54700603 114.23655801 23.54947218 120.62661409 23.53903532 127.01681948 C23.53283429 130.82160427 23.5318703 134.62618285 23.54518127 138.43095398 C23.55683017 142.00992387 23.54855186 145.58833214 23.52560425 149.16724205 C23.5178875 151.0889702 23.52959548 153.01074647 23.54211426 154.93244934 C23.43485095 166.04737058 20.83064053 175.81015578 13 184 C8.78743125 187.7070605 4.24099431 190.92797899 -1 193 C-1.99 192.67 -2.98 192.34 -4 192 C-4.144375 191.360625 -4.28875 190.72125 -4.4375 190.0625 C-4.80104993 187.79688294 -4.80104993 187.79688294 -7.0625 186.75 C-8.0215625 186.37875 -8.0215625 186.37875 -9 186 C-9 185.01 -9 184.02 -9 183 C-10.00160156 183.02320313 -11.00320312 183.04640625 -12.03515625 183.0703125 C-13.37759664 183.08908789 -14.72004518 183.10728618 -16.0625 183.125 C-17.37347656 183.14820313 -18.68445313 183.17140625 -20.03515625 183.1953125 C-24.11824299 182.99417522 -27.14999053 182.27165462 -31 181 C-30.8594438 177.66642262 -30.71158198 174.33320611 -30.5625 171 C-30.52318359 170.06542969 -30.48386719 169.13085938 -30.44335938 168.16796875 C-30.19609347 162.72811877 -29.75680832 157.39305423 -29 152 C-28.67 152 -28.34 152 -28 152 C-28 160.91 -28 169.82 -28 179 C-22.41959981 181.79020009 -12.36796654 180.6127962 -6.2734375 179.50390625 C1.04866717 177.00195157 4.6621996 171.55639365 8 165 C9.05019744 161.75080216 9.12339478 158.75994325 9.12025452 155.355896 C9.12162918 154.20607239 9.12300385 153.05624878 9.12442017 151.87158203 C9.12082489 150.6142627 9.11722961 149.35694336 9.11352539 148.06152344 C9.11324325 146.72104901 9.11340179 145.38057443 9.1139679 144.0401001 C9.11425481 140.40407574 9.10837518 136.76808437 9.10139394 133.13206768 C9.09514279 129.33106847 9.0945552 125.5300685 9.09336853 121.72906494 C9.09026042 114.5326663 9.08205402 107.33628286 9.07201904 100.13989091 C9.06084178 91.94648576 9.05534338 83.75307989 9.05032361 75.55966902 C9.03987099 58.70643722 9.02228159 41.85322022 9 25 C12.32693928 28.32693928 12.12598992 31.77079215 12.14044189 36.3177948 C12.14615204 37.39571289 12.15186218 38.47363098 12.15774536 39.58421326 C12.15886322 40.76193802 12.15998108 41.93966278 12.16113281 43.15307617 C12.16858017 45.01958328 12.16858017 45.01958328 12.17617798 46.92379761 C12.18827744 50.33522896 12.19574269 53.74659907 12.20018864 57.15804458 C12.20312396 59.29221277 12.2072297 61.42637565 12.21169281 63.56054115 C12.22536341 70.24595813 12.23503143 76.93136288 12.2388947 83.61679286 C12.24337043 91.31867912 12.26089748 99.02038746 12.2898953 106.72221965 C12.31156138 112.68502797 12.32160165 118.64778643 12.32293582 124.61063367 C12.3239806 128.16729761 12.32981791 131.72379421 12.34775543 135.28041649 C12.36740432 139.25365215 12.36292753 143.22666824 12.35644531 147.19995117 C12.37026749 148.95135658 12.37026749 148.95135658 12.3843689 150.73814392 C12.35384879 156.72262391 11.85208221 161.69637678 9.64371872 167.28593922 C8.88280789 169.00689473 8.88280789 169.00689473 9 171 C9.66 171 10.32 171 11 171 C12 172 13 173 14 174 C14.66 174 15.32 174 16 174 C16.99 171.69 17.98 169.38 19 167 C19.66 167 20.32 167 21 167 C21.09362864 149.06667117 21.1640697 131.13340617 21.20724869 113.19988537 C21.22783437 104.87218724 21.25587811 96.54464138 21.30175781 88.21704102 C21.34174842 80.95487766 21.36746181 73.69282463 21.37635398 66.43055421 C21.38154816 62.58865174 21.39367186 58.74706479 21.42292023 54.9052639 C21.45028322 51.28138804 21.45840345 47.6579545 21.45243073 44.03398514 C21.45403779 42.08584671 21.47545049 40.13775529 21.49768066 38.18974304 C21.45111739 28.15766043 19.49153826 18.93410232 13 11 C8.98227391 7.08377436 4.90221429 3.75749554 0 1 C0 0.67 0 0.34 0 0 Z M-9 187 C-7 188 -7 188 -7 188 Z " fill="#5B78DD" transform="translate(195,30)"/>
<path d="M0 0 C1.15494965 -0.00997513 2.30989929 -0.01995026 3.49984741 -0.03022766 C4.75296722 -0.03089233 6.00608704 -0.03155701 7.29718018 -0.03224182 C8.64143328 -0.03987047 9.98568204 -0.04829917 11.32992554 -0.0574646 C14.97062997 -0.07934885 18.61125044 -0.08820044 22.25201321 -0.09329104 C24.53060071 -0.09694225 26.80916648 -0.1031863 29.08774567 -0.11029243 C37.04851745 -0.13476722 45.00922427 -0.14783426 52.97003174 -0.15138245 C60.37166385 -0.15501473 67.77288055 -0.18489283 75.17438579 -0.22678703 C81.54405141 -0.26156711 87.91357988 -0.27693223 94.28333974 -0.27762848 C98.08100193 -0.27841877 101.8782407 -0.28704179 105.67580414 -0.31562614 C109.25145343 -0.34193961 112.82633224 -0.34393941 116.40203476 -0.3279705 C118.32525253 -0.32531215 120.2484562 -0.34724967 122.17153931 -0.37016296 C129.9861154 -0.30473952 135.46829346 1.09907079 142.10675049 5.27415466 C141.77675049 5.93415466 141.44675049 6.59415466 141.10675049 7.27415466 C140.06603394 6.62450241 139.02531738 5.97485016 137.95306396 5.30551147 C132.01773237 2.36295854 126.06671557 2.72250117 119.56573486 2.77244568 C118.2080886 2.76865682 116.85044621 2.76315212 115.49281311 2.756073 C111.8253451 2.74217471 108.1583492 2.75324804 104.49090767 2.76978421 C100.64161996 2.78369414 96.79235801 2.77716789 92.9430542 2.77365112 C86.48045294 2.77095367 80.0180379 2.78438438 73.55548096 2.80760193 C66.09818709 2.83420881 58.64120445 2.83595706 51.18387938 2.82421356 C43.9917324 2.81341088 36.79969732 2.81964234 29.6075592 2.83376884 C26.55511307 2.8395071 23.5027494 2.83946307 20.45030212 2.83470345 C16.85175584 2.82990897 13.2535476 2.8401366 9.65506554 2.8616581 C7.7148487 2.86981974 5.77458743 2.86340116 3.83436584 2.85646057 C-3.63759974 2.9197684 -10.11747122 3.18906752 -16.13543701 8.10618591 C-16.9436792 9.08651794 -16.9436792 9.08651794 -17.76824951 10.08665466 C-18.59969482 11.05538513 -18.59969482 11.05538513 -19.44793701 12.04368591 C-23.15359419 17.76241632 -23.29170113 23.72805674 -23.50994873 30.32615662 C-23.54754744 31.29527387 -23.58514614 32.26439112 -23.6238842 33.26287556 C-23.9851566 43.3221233 -24.0387854 53.37754346 -24.02606201 63.44212341 C-24.02673909 65.38298556 -24.02771244 67.32384761 -24.02896118 69.26470947 C-24.03041815 73.29057133 -24.02834845 77.3164107 -24.02362061 81.3422699 C-24.01791293 86.44483059 -24.02122182 91.54733877 -24.02719307 96.64989758 C-24.03084348 100.64385356 -24.02963995 104.63779753 -24.02706528 108.63175392 C-24.02640894 110.51119811 -24.02717786 112.39064347 -24.02954483 114.27008629 C-24.03545244 120.27261711 -23.99570302 126.27247019 -23.89324951 132.27415466 C-23.88004417 133.13674015 -23.86683884 133.99932564 -23.85323334 134.88805008 C-23.80349358 137.45069966 -23.72418857 140.01070093 -23.63494873 142.57225037 C-23.61457141 143.71114983 -23.61457141 143.71114983 -23.59378242 144.87305737 C-23.28560191 151.92825416 -20.83309102 157.51574804 -15.89324951 162.58665466 C-12.69004229 165.16532352 -9.62517352 166.01968042 -5.64324951 166.94212341 C-4.02676514 167.32340393 -4.02676514 167.32340393 -2.37762451 167.71238708 C-1.55778076 167.89777039 -0.73793701 168.08315369 0.10675049 168.27415466 C0.10230927 167.57702362 0.09786804 166.87989258 0.09329224 166.16163635 C0.05325463 159.5988774 0.02278607 153.03615241 0.00312614 146.47329903 C-0.00732093 143.09908472 -0.02149676 139.72497115 -0.04412842 136.35081482 C-0.06829836 132.47367149 -0.07971462 128.5966719 -0.08856201 124.71946716 C-0.09888458 123.50485809 -0.10920715 122.29024902 -0.11984253 121.03883362 C-0.11999359 119.91782257 -0.12014465 118.79681152 -0.12030029 117.64183044 C-0.12474152 116.65143768 -0.12918274 115.66104492 -0.13375854 114.64064026 C0.10675049 112.27415466 0.10675049 112.27415466 2.10675049 110.27415466 C5.17950439 110.04710388 5.17950439 110.04710388 9.08331299 110.07884216 C9.76856049 110.08167206 10.45380798 110.08450195 11.15982056 110.0874176 C13.35064076 110.09862185 15.54105364 110.12372608 17.73175049 110.14915466 C19.21611959 110.15918418 20.70049509 110.16831008 22.18487549 110.17649841 C25.82563309 110.19856172 29.46615205 110.23309291 33.10675049 110.27415466 C33.09104004 109.47195496 33.07532959 108.66975525 33.05914307 107.84324646 C32.99686466 104.21612062 32.95778185 100.58910717 32.91925049 96.96165466 C32.89411377 95.69901794 32.86897705 94.43638123 32.84307861 93.13548279 C32.83341064 91.92698669 32.82374268 90.7184906 32.81378174 89.47337341 C32.79807129 88.35793152 32.78236084 87.24248962 32.76617432 86.09324646 C33.10675049 83.27415466 33.10675049 83.27415466 34.40167236 81.40501404 C37.26988852 79.50272635 40.47977755 79.96595957 43.79425049 80.08665466 C44.49614502 80.10018982 45.19803955 80.11372498 45.92120361 80.12767029 C47.65004877 80.16295284 49.37849814 80.21675883 51.10675049 80.27415466 C50.77675049 80.93415466 50.44675049 81.59415466 50.10675049 82.27415466 C45.48675049 82.27415466 40.86675049 82.27415466 36.10675049 82.27415466 C36.01587158 85.39690857 36.01587158 85.39690857 35.92315674 88.58274841 C35.86059642 90.59162968 35.79800274 92.60051007 35.73443604 94.60935974 C35.69103615 96.00904666 35.64936485 97.40878826 35.60943604 98.80857849 C35.55185604 100.81676961 35.48761049 102.82476616 35.42315674 104.83274841 C35.38649902 106.042453 35.34984131 107.25215759 35.31207275 108.4985199 C35.10675049 111.27415466 35.10675049 111.27415466 34.10675049 112.27415466 C31.73336409 112.43387443 29.38556777 112.53339796 27.00909424 112.59056091 C25.9458065 112.62173256 25.9458065 112.62173256 24.86103821 112.65353394 C22.58887744 112.71910064 20.31659784 112.77794696 18.04425049 112.83665466 C16.50712865 112.87983315 14.97001899 112.92344722 13.43292236 112.96751404 C9.65765458 113.07478915 5.88226689 113.17603604 2.10675049 113.27415466 C2.09644302 113.97350632 2.08613556 114.67285797 2.07551575 115.3934021 C1.97770016 121.9712913 1.87520891 128.54908886 1.76741123 135.12682247 C1.71215247 138.50882589 1.65872793 141.8908379 1.60943604 145.27293396 C1.55274103 149.15754894 1.48817464 153.04201344 1.42315674 156.92649841 C1.398088 158.75615395 1.398088 158.75615395 1.37251282 160.62277222 C1.3525676 161.7438588 1.33262238 162.86494537 1.31207275 164.02000427 C1.29652847 165.01261765 1.28098419 166.00523102 1.26496887 167.02792358 C1.10675049 169.27415466 1.10675049 169.27415466 0.10675049 170.27415466 C-7.01529317 170.35057144 -12.61875838 168.3991877 -17.77606201 163.47727966 C-25.27517552 155.38200232 -26.33847155 148.75015666 -26.28143311 137.97996521 C-26.28669006 136.75630249 -26.29194702 135.53263977 -26.29736328 134.27189636 C-26.30827297 130.93063947 -26.30575951 127.58994302 -26.29622602 124.24871802 C-26.2885966 120.73935208 -26.29568459 117.23000904 -26.30038452 113.72064209 C-26.30583472 107.82543169 -26.29867212 101.93033422 -26.28436279 96.03514099 C-26.26806035 89.24080822 -26.2733101 82.4467459 -26.28984201 75.65241975 C-26.30350516 69.80076732 -26.30535239 63.94919581 -26.297526 58.09753257 C-26.29287296 54.61077026 -26.29215827 51.12413454 -26.30213547 47.6373806 C-26.31249955 43.74365817 -26.29808923 39.85023246 -26.28143311 35.95652771 C-26.2875058 34.81593399 -26.29357849 33.67534027 -26.29983521 32.50018311 C-26.22719537 23.29317016 -24.97754462 14.54150715 -18.89324951 7.27415466 C-13.25400689 2.33637881 -7.57087449 0.03523869 0 0 Z " fill="#3B51BF" transform="translate(53.89324951171875,37.72584533691406)"/>
<path d="M0 0 C3.12486016 0.30486441 6.25028111 0.50841216 9.3828125 0.71875 C12 1 12 1 13 2 C13.10031145 3.5895791 13.13075858 5.18361361 13.13371277 6.77635193 C13.13797775 7.80977722 13.14224274 8.84320251 13.14663696 9.90794373 C13.14618378 11.0513472 13.14573059 12.19475067 13.14526367 13.37280273 C13.14862228 14.56942535 13.1519809 15.76604797 13.15544128 16.99893188 C13.16333699 20.29024361 13.16662022 23.58149228 13.16725707 26.87280917 C13.16820458 29.61647603 13.17188105 32.36013679 13.17542917 35.10380131 C13.18358125 41.57481923 13.18601272 48.04582324 13.18530273 54.5168457 C13.18470177 61.20095457 13.19525563 67.88498278 13.2110464 74.56907123 C13.22410461 80.29986466 13.22948736 86.03063166 13.22884732 91.76143986 C13.22859182 95.18765758 13.23147144 98.61380368 13.24202538 102.04000664 C13.25346826 105.85930433 13.24897009 109.67849065 13.24291992 113.49780273 C13.24853943 114.63918198 13.25415894 115.78056122 13.25994873 116.95652771 C13.25575424 117.99277283 13.25155975 119.02901794 13.24723816 120.09666443 C13.24778293 121.00056632 13.24832769 121.90446821 13.24888897 122.83576107 C13 125 13 125 11 127 C8.8359375 127.1953125 8.8359375 127.1953125 6.375 127.125 C5.55773437 127.10695312 4.74046875 127.08890625 3.8984375 127.0703125 C3.27195313 127.04710937 2.64546875 127.02390625 2 127 C2 126.34 2 125.68 2 125 C4.97 125 7.94 125 11 125 C10.67 84.74 10.34 44.48 10 3 C4.06 3 -1.88 3 -8 3 C-8 43.59 -8 84.18 -8 126 C-8.66 125.67 -9.32 125.34 -10 125 C-10.02334708 109.14499019 -10.04098809 93.289985 -10.05181217 77.43496227 C-10.05697128 70.07341627 -10.06400666 62.71188095 -10.07543945 55.3503418 C-10.08539804 48.9349898 -10.09185624 42.51964553 -10.09408849 36.10428602 C-10.0953936 32.7065452 -10.09846685 29.3088265 -10.10573006 25.91109276 C-10.11295362 22.12064662 -10.11399038 18.3302468 -10.11352539 14.53979492 C-10.11712067 13.40979065 -10.12071594 12.27978638 -10.12442017 11.11553955 C-10.1230455 10.08488876 -10.12167084 9.05423798 -10.12025452 7.99235535 C-10.12117631 7.09545077 -10.1220981 6.1985462 -10.12304783 5.2744627 C-10 3 -10 3 -9 0 C-3.375 -1.125 -3.375 -1.125 0 0 Z " fill="#5164B4" transform="translate(143,81)"/>
<path d="M0 0 C3.32693928 3.32693928 3.12598992 6.77079215 3.14044189 11.3177948 C3.14615204 12.39571289 3.15186218 13.47363098 3.15774536 14.58421326 C3.15886322 15.76193802 3.15998108 16.93966278 3.16113281 18.15307617 C3.16858017 20.01958328 3.16858017 20.01958328 3.17617798 21.92379761 C3.18827744 25.33522896 3.19574269 28.74659907 3.20018864 32.15804458 C3.20312396 34.29221277 3.2072297 36.42637565 3.21169281 38.56054115 C3.22536341 45.24595813 3.23503143 51.93136288 3.2388947 58.61679286 C3.24337043 66.31867912 3.26089748 74.02038746 3.2898953 81.72221965 C3.31156138 87.68502797 3.32160165 93.64778643 3.32293582 99.61063367 C3.3239806 103.16729761 3.32981791 106.72379421 3.34775543 110.28041649 C3.36740432 114.25365215 3.36292753 118.22666824 3.35644531 122.19995117 C3.37026749 123.95135658 3.37026749 123.95135658 3.3843689 125.73814392 C3.35028268 132.42187681 2.51496529 137.81270489 0 144 C-0.33 145.03125 -0.66 146.0625 -1 147.125 C-4.44618376 152.07888916 -10.2207099 155.62571269 -15.890625 157.6875 C-19.03947371 158.15399611 -22.13072776 158.17151119 -25.3125 158.1875 C-26.58738281 158.20167969 -27.86226562 158.21585938 -29.17578125 158.23046875 C-33.16575384 157.99001075 -36.22538569 157.2354171 -40 156 C-39.8594438 152.66642262 -39.71158198 149.33320611 -39.5625 146 C-39.52318359 145.06542969 -39.48386719 144.13085938 -39.44335938 143.16796875 C-39.19609347 137.72811877 -38.75680832 132.39305423 -38 127 C-37.67 127 -37.34 127 -37 127 C-37 135.91 -37 144.82 -37 154 C-31.41959981 156.79020009 -21.36796654 155.6127962 -15.2734375 154.50390625 C-7.95133283 152.00195157 -4.3378004 146.55639365 -1 140 C0.05019744 136.75080216 0.12339478 133.75994325 0.12025452 130.355896 C0.12162918 129.20607239 0.12300385 128.05624878 0.12442017 126.87158203 C0.12082489 125.6142627 0.11722961 124.35694336 0.11352539 123.06152344 C0.11324325 121.72104901 0.11340179 120.38057443 0.1139679 119.0401001 C0.11425481 115.40407574 0.10837518 111.76808437 0.10139394 108.13206768 C0.09514279 104.33106847 0.0945552 100.5300685 0.09336853 96.72906494 C0.09026042 89.5326663 0.08205402 82.33628286 0.07201904 75.13989091 C0.06084178 66.94648576 0.05534338 58.75307989 0.05032361 50.55966902 C0.03987099 33.70643722 0.02228159 16.85322022 0 0 Z " fill="#4C60AB" transform="translate(204,55)"/>
<path d="M0 0 C1.33469425 -0.00435417 2.669386 -0.00953966 4.0040741 -0.01548767 C7.60955718 -0.02881364 11.21493502 -0.02946349 14.82043791 -0.02692437 C17.83957903 -0.02585023 20.85869925 -0.03074936 23.87783587 -0.03552979 C31.00565016 -0.04660299 38.13341175 -0.04707483 45.26123047 -0.04101562 C52.59349792 -0.03497808 59.92557338 -0.04728624 67.25780809 -0.06858569 C73.57231085 -0.08624846 79.88675275 -0.09219568 86.20127928 -0.08894795 C89.9641382 -0.08714227 93.72686015 -0.08969919 97.4896965 -0.10366249 C101.03076117 -0.11631257 104.57152835 -0.11422968 108.11258888 -0.1012516 C110.01666172 -0.09778932 111.92074395 -0.10901088 113.82478333 -0.12081909 C120.94176453 -0.07759485 126.99753646 0.76328864 133.67431641 3.2746582 C130.3737402 4.37485027 129.85812481 4.11114066 126.67431641 3.2746582 C124.72049807 3.17377123 122.76362979 3.12692179 120.80725098 3.11402893 C119.60745605 3.10398331 118.40766113 3.09393768 117.17150879 3.08358765 C115.85823608 3.07775665 114.54496338 3.07192566 113.19189453 3.06591797 C111.79207121 3.05637477 110.39225023 3.04648341 108.99243164 3.03627014 C104.39683822 3.00492708 99.80122697 2.98461729 95.20556641 2.96606445 C94.42219595 2.96276713 93.63882549 2.95946981 92.83171654 2.95607257 C85.43507138 2.92528421 78.03842197 2.89859271 70.64173126 2.88165379 C61.2028981 2.85978041 51.76463612 2.81787674 42.32603121 2.74821621 C35.6778384 2.70082962 29.02979885 2.67670049 22.38144255 2.6694569 C18.41702825 2.66452113 14.45325821 2.64964128 10.48902893 2.6097126 C6.75248212 2.5725738 3.01694018 2.56452401 -0.71975708 2.57771873 C-2.72615586 2.57763994 -4.73248716 2.54796327 -6.73864746 2.51702881 C-16.48007355 2.59427738 -24.5819445 4.8282764 -31.82952118 11.62154484 C-36.78540641 16.95526321 -40.21074116 22.27907938 -42.32568359 29.2746582 C-43.21544066 26.81374783 -43.4087522 25.55107614 -42.64599609 23.01293945 C-38.08284851 13.75243406 -31.35383111 5.68811935 -21.32568359 2.2746582 C-14.18021283 0.04826654 -7.45014176 -0.01492595 0 0 Z " fill="#4E69C0" transform="translate(61.32568359375,25.725341796875)"/>
<path d="M0 0 C0.70189453 0.01353516 1.40378906 0.02707031 2.12695312 0.04101562 C3.85579829 0.07629818 5.58424765 0.13010417 7.3125 0.1875 C6.9825 0.8475 6.6525 1.5075 6.3125 2.1875 C1.6925 2.1875 -2.9275 2.1875 -7.6875 2.1875 C-7.77837891 5.31025391 -7.77837891 5.31025391 -7.87109375 8.49609375 C-7.93365407 10.50497502 -7.99624775 12.51385541 -8.05981445 14.52270508 C-8.10321434 15.92239199 -8.14488564 17.32213359 -8.18481445 18.72192383 C-8.24239445 20.73011495 -8.30664 22.73811149 -8.37109375 24.74609375 C-8.40775146 25.95579834 -8.44440918 27.16550293 -8.48217773 28.41186523 C-8.6875 31.1875 -8.6875 31.1875 -9.6875 32.1875 C-12.06088639 32.34721977 -14.40868272 32.4467433 -16.78515625 32.50390625 C-17.84844398 32.5350779 -17.84844398 32.5350779 -18.93321228 32.56687927 C-21.20537305 32.63244598 -23.47765264 32.6912923 -25.75 32.75 C-27.28712183 32.79317849 -28.8242315 32.83679255 -30.36132812 32.88085938 C-34.1365959 32.98813449 -37.9119836 33.08938137 -41.6875 33.1875 C-41.69780746 33.88685165 -41.70811493 34.58620331 -41.71873474 35.30674744 C-41.81655032 41.88463663 -41.91904157 48.4624342 -42.02683926 55.04016781 C-42.08209802 58.42217122 -42.13552256 61.80418324 -42.18481445 65.1862793 C-42.24150946 69.07089427 -42.30607585 72.95535878 -42.37109375 76.83984375 C-42.39616249 78.66949928 -42.39616249 78.66949928 -42.42173767 80.53611755 C-42.44168289 81.65720413 -42.46162811 82.77829071 -42.48217773 83.93334961 C-42.49772202 84.92596298 -42.5132663 85.91857635 -42.52928162 86.94126892 C-42.6875 89.1875 -42.6875 89.1875 -43.6875 90.1875 C-50.80954365 90.26391678 -56.41300887 88.31253303 -61.5703125 83.390625 C-67.69592992 76.77803381 -70.19459442 70.70683847 -69.875 61.75 C-69.86146484 61.01845703 -69.84792969 60.28691406 -69.83398438 59.53320312 C-69.79903874 57.75097578 -69.74524805 55.96913427 -69.6875 54.1875 C-69.3575 54.1875 -69.0275 54.1875 -68.6875 54.1875 C-68.58953125 55.321875 -68.4915625 56.45625 -68.390625 57.625 C-67.14022007 71.30814535 -67.14022007 71.30814535 -59.6875 82.5 C-56.45062965 85.03800587 -53.42359705 85.93205904 -49.4375 86.85546875 C-48.35984375 87.10965576 -47.2821875 87.36384277 -46.171875 87.62573242 C-45.35203125 87.81111572 -44.5321875 87.99649902 -43.6875 88.1875 C-43.69194122 87.49036896 -43.69638245 86.79323792 -43.70095825 86.07498169 C-43.74099586 79.51222274 -43.77146442 72.94949775 -43.79112434 66.38664436 C-43.80157142 63.01243006 -43.81574725 59.63831648 -43.83837891 56.26416016 C-43.86254885 52.38701682 -43.87396511 48.51001723 -43.8828125 44.6328125 C-43.89313507 43.41820343 -43.90345764 42.20359436 -43.91409302 40.95217896 C-43.91424408 39.83116791 -43.91439514 38.71015686 -43.91455078 37.55517578 C-43.918992 36.56478302 -43.92343323 35.57439026 -43.92800903 34.5539856 C-43.6875 32.1875 -43.6875 32.1875 -41.6875 30.1875 C-38.61474609 29.96044922 -38.61474609 29.96044922 -34.7109375 29.9921875 C-34.02569 29.9950174 -33.3404425 29.99784729 -32.63442993 30.00076294 C-30.44360973 30.01196719 -28.25319684 30.03707141 -26.0625 30.0625 C-24.5781309 30.07252952 -23.0937554 30.08165542 -21.609375 30.08984375 C-17.96861739 30.11190706 -14.32809844 30.14643824 -10.6875 30.1875 C-10.70321045 29.38530029 -10.7189209 28.58310059 -10.73510742 27.7565918 C-10.79738583 24.12946596 -10.83646864 20.50245251 -10.875 16.875 C-10.90013672 15.61236328 -10.92527344 14.34972656 -10.95117188 13.04882812 C-10.96083984 11.84033203 -10.97050781 10.63183594 -10.98046875 9.38671875 C-10.9961792 8.27127686 -11.01188965 7.15583496 -11.02807617 6.0065918 C-10.6875 3.1875 -10.6875 3.1875 -9.39257812 1.31835938 C-6.52436197 -0.58392832 -3.31447294 -0.12069509 0 0 Z " fill="#4F62B3" transform="translate(97.6875,117.8125)"/>
<path d="M0 0 C0.66 0.33 1.32 0.66 2 1 C2.04667598 17.00265725 2.08196719 33.0052925 2.10362434 49.00800133 C2.11394644 56.43797452 2.12802453 63.86790548 2.15087891 71.29785156 C2.1707843 77.77215783 2.18370964 84.24643351 2.18817699 90.72076952 C2.19078923 94.15036531 2.19694832 97.57987358 2.21146011 101.00944138 C2.2275111 104.83362241 2.22798152 108.65771703 2.22705078 112.48193359 C2.23424133 113.62488388 2.24143188 114.76783417 2.24884033 115.94541931 C2.246091 116.98310959 2.24334167 118.02079987 2.24050903 119.0899353 C2.24235262 119.99513601 2.24419621 120.90033672 2.24609566 121.83296776 C2 124 2 124 0 126 C-2.1640625 126.1953125 -2.1640625 126.1953125 -4.625 126.125 C-5.44226563 126.10695313 -6.25953125 126.08890625 -7.1015625 126.0703125 C-7.72804687 126.04710937 -8.35453125 126.02390625 -9 126 C-9 125.34 -9 124.68 -9 124 C-6.03 124 -3.06 124 0 124 C-0.00607553 123.36701272 -0.01215105 122.73402544 -0.01841068 122.08185673 C-0.16569007 106.701349 -0.3074328 91.32080182 -0.4429636 75.9401865 C-0.50863887 68.50233257 -0.57620892 61.06450475 -0.64819336 53.62670898 C-0.71090807 47.14621715 -0.77011482 40.66570456 -0.82505554 34.18514198 C-0.85428764 30.75167333 -0.88531258 27.31824144 -0.92053413 23.88482857 C-0.95972486 20.05810611 -0.99108584 16.23134197 -1.02172852 12.40454102 C-1.03467453 11.25799545 -1.04762054 10.11144989 -1.06095886 8.93016052 C-1.06799835 7.89384491 -1.07503784 6.8575293 -1.08229065 5.78981018 C-1.09058679 4.88368768 -1.09888292 3.97756517 -1.10743046 3.04398441 C-1 1 -1 1 0 0 Z " fill="#4961BE" transform="translate(154,82)"/>
<path d="M0 0 C7.02453826 0.9646373 12.52150238 5.75008355 16.8125 11.25 C22.49086993 20.36800807 23.58639172 29.27071262 23.51757812 39.83398438 C23.52301202 41.18720752 23.53014174 42.54042474 23.53881836 43.89363098 C23.55690452 47.5363143 23.55004596 51.1785396 23.53730202 54.82122993 C23.52709728 58.65308899 23.53658826 62.48491168 23.54284668 66.31677246 C23.55010152 72.74885011 23.54059255 79.18074338 23.52148438 85.61279297 C23.49971967 93.02413571 23.50677259 100.43503813 23.52879 107.84637022 C23.54700603 114.23655801 23.54947218 120.62661409 23.53903532 127.01681948 C23.53283429 130.82160427 23.5318703 134.62618285 23.54518127 138.43095398 C23.55683017 142.00992387 23.54855186 145.58833214 23.52560425 149.16724205 C23.5178875 151.0889702 23.52959548 153.01074647 23.54211426 154.93244934 C23.43485095 166.04737058 20.83064053 175.81015578 13 184 C8.78743125 187.7070605 4.24099431 190.92797899 -1 193 C-1.99 192.67 -2.98 192.34 -4 192 C-3.28714844 191.63648438 -2.57429687 191.27296875 -1.83984375 190.8984375 C9.0674858 185.17319049 16.2514775 179.76328376 20.04702759 167.66169739 C21.47211466 161.79087918 21.29500525 155.88289929 21.29052734 149.8737793 C21.29724457 148.57354828 21.30396179 147.27331726 21.31088257 145.9336853 C21.32845851 142.38599385 21.33323436 138.83839904 21.33451414 135.29066825 C21.33594106 133.0686804 21.34022083 130.8467167 21.34550858 128.62473488 C21.3639809 120.85731079 21.37218269 113.08995509 21.37060547 105.32250977 C21.36940476 98.10722773 21.3905003 90.89224515 21.4220928 83.67703885 C21.44833039 77.46103164 21.45896965 71.2451218 21.45769465 65.02905971 C21.45718722 61.32591847 21.46274812 57.62304368 21.48405075 53.91995811 C21.50719359 49.78456855 21.49786675 45.64984124 21.48583984 41.5144043 C21.49707886 40.30417099 21.50831787 39.09393768 21.51989746 37.84703064 C21.44716901 27.96835955 19.3841881 18.80289656 13 11 C8.98227391 7.08377436 4.90221429 3.75749554 0 1 C0 0.67 0 0.34 0 0 Z " fill="#384C98" transform="translate(195,30)"/>
<path d="M0 0 C1.09570312 0.00902344 2.19140625 0.01804687 3.3203125 0.02734375 C4.16335937 0.03894531 5.00640625 0.05054687 5.875 0.0625 C8.35274742 4.52832144 8.40054109 8.50048719 7.375 13.5 C7.21 14.015625 7.045 14.53125 6.875 15.0625 C2.16600905 15.83131485 -2.3540252 16.4366941 -7.125 16.0625 C-9.97988368 11.78017447 -9.50630949 7.54101168 -8.75 2.625 C-7.29156992 -1.02107521 -3.32415562 -0.03536336 0 0 Z " fill="#5870D2" transform="translate(84.125,84.9375)"/>
<path d="M0 0 C1.1859375 0.00257812 2.371875 0.00515625 3.59375 0.0078125 C4.7796875 0.00523438 5.965625 0.00265625 7.1875 0 C10.09375 0.1328125 10.09375 0.1328125 11.09375 1.1328125 C11.16688567 3.66330652 11.18622527 6.16586087 11.15625 8.6953125 C11.15173828 9.40623047 11.14722656 10.11714844 11.14257812 10.84960938 C11.13075864 12.61071263 11.11282263 14.37177286 11.09375 16.1328125 C8.96937788 16.32729727 6.84421809 16.51319539 4.71875 16.6953125 C3.53539062 16.79972656 2.35203125 16.90414062 1.1328125 17.01171875 C-1.90625 17.1328125 -1.90625 17.1328125 -3.90625 16.1328125 C-3.93310095 13.65357449 -3.95301547 11.1746241 -3.96875 8.6953125 C-3.98131836 7.63473633 -3.98131836 7.63473633 -3.99414062 6.55273438 C-4.00278588 4.74587691 -3.95845011 2.93893647 -3.90625 1.1328125 C-2.90625 0.1328125 -2.90625 0.1328125 0 0 Z " fill="#5A77DC" transform="translate(56.90625,58.8671875)"/>
<path d="M0 0 C1.73236948 2.59855422 3.03530268 5.06760879 4.375 7.875 C8.76766789 16.71171201 14.73164101 22.33396341 23.94281006 25.98971558 C32.15373436 28.4024516 41.23945683 27.65104206 49.70505142 27.59158516 C53.3804508 27.56598741 57.05473853 27.57102163 60.73019409 27.58348083 C68.5285873 27.60414047 76.32663 27.5845883 84.125 27.5625 C93.17482439 27.5413458 102.22428813 27.53688939 111.27410507 27.56300163 C114.88255197 27.56634805 118.49029912 27.54519384 122.09866333 27.52259827 C124.32375233 27.52511071 126.54884048 27.52867191 128.77392578 27.53344727 C129.7664032 27.52056168 130.75888062 27.50767609 131.78143311 27.49440002 C137.81446585 27.53737339 142.40326797 28.58103104 147.89908218 31.09705639 C150.59016253 32.25364318 152.8741106 32.4608648 155.7890625 32.390625 C157.22958984 32.37128906 157.22958984 32.37128906 158.69921875 32.3515625 C159.66472656 32.31804687 160.63023437 32.28453125 161.625 32.25 C162.62917969 32.23195312 163.63335937 32.21390625 164.66796875 32.1953125 C167.11302652 32.14873997 169.55596812 32.08337028 172 32 C172 32.66 172 33.32 172 34 C160.43484457 36.65394425 148.63377746 35.31688873 138 30 C136.52738291 29.90456664 135.05053347 29.87098561 133.5748291 29.86869812 C132.17880463 29.86268585 132.17880463 29.86268585 130.75457764 29.85655212 C129.73019592 29.85708084 128.70581421 29.85760956 127.65039062 29.8581543 C126.03544708 29.85294266 126.03544708 29.85294266 124.38787842 29.84762573 C122.04267395 29.84025854 119.69746245 29.83491831 117.35224915 29.83133507 C113.63593881 29.82417964 109.91976129 29.80851796 106.20349121 29.78999329 C95.63436317 29.737494 85.06534017 29.68958201 74.49609375 29.67407227 C68.03566878 29.66396937 61.57557434 29.6345802 55.11528015 29.59275246 C52.65625005 29.58046489 50.19717319 29.57531708 47.7381134 29.57755089 C44.28664144 29.57991366 40.83611012 29.55765968 37.38476562 29.5300293 C36.37657776 29.53663071 35.36838989 29.54323212 34.32965088 29.55003357 C23.40369215 29.40713061 15.96158356 25.72737614 8.1328125 18.2421875 C3.79130586 13.6780395 0.16337501 8.6759378 -0.125 2.1875 C-0.08375 1.465625 -0.0425 0.74375 0 0 Z " fill="#5161A9" transform="translate(18,190)"/>
<path d="M0 0 C7.92 0 15.84 0 24 0 C25.57061385 1.57061385 25.1272498 3.123756 25.12939453 5.30444336 C25.13254669 6.21886703 25.13569885 7.13329071 25.13894653 8.07542419 C25.1369223 9.07018265 25.13489807 10.0649411 25.1328125 11.08984375 C25.13424759 12.61213341 25.13424759 12.61213341 25.13571167 14.16517639 C25.13639368 16.31641705 25.13453798 18.46765975 25.13037109 20.61889648 C25.12502864 23.91980602 25.13031257 27.22057914 25.13671875 30.52148438 C25.13605786 32.60677114 25.13477648 34.69205781 25.1328125 36.77734375 C25.13483673 37.77007797 25.13686096 38.76281219 25.13894653 39.78562927 C25.13579437 40.70320511 25.13264221 41.62078094 25.12939453 42.56616211 C25.12859894 43.37588974 25.12780334 44.18561737 25.12698364 45.0198822 C25 47 25 47 24 49 C22.35 48.67 20.7 48.34 19 48 C20.98 47.505 20.98 47.505 23 47 C23 32.15 23 17.3 23 2 C16.07 2 9.14 2 2 2 C2.33 2.99 2.66 3.98 3 5 C3.08103845 6.38611694 3.10756999 7.77585819 3.09765625 9.16430664 C3.09435303 9.99849625 3.0910498 10.83268585 3.08764648 11.69215393 C3.07934814 12.5890947 3.0710498 13.48603546 3.0625 14.41015625 C3.05871338 15.33340195 3.05492676 16.25664764 3.05102539 17.20787048 C3.03879838 20.15946075 3.0201651 23.11095391 3 26.0625 C2.97349321 29.94921605 2.95345783 33.8358842 2.9375 37.72265625 C2.92505249 39.07110374 2.92505249 39.07110374 2.91235352 40.4467926 C2.90905029 41.27783005 2.90574707 42.10886749 2.90234375 42.96508789 C2.89710693 43.69772354 2.89187012 44.43035919 2.88647461 45.18519592 C2.88773555 47.10088713 2.88773555 47.10088713 4 49 C3.01 48.67 2.02 48.34 1 48 C0.67 32.16 0.34 16.32 0 0 Z " fill="#5266B4" transform="translate(64,159)"/>
<path d="M0 0 C7.92 0 15.84 0 24 0 C24 0.33 24 0.66 24 1 C13.11 1.495 13.11 1.495 2 2 C2.00523682 3.99297119 2.01047363 5.98594238 2.01586914 8.03930664 C2.03202652 14.64102137 2.04349947 21.2427314 2.05181217 27.84446049 C2.05701974 31.84513013 2.0640786 35.84577827 2.07543945 39.84643555 C2.08634411 43.71084745 2.09229285 47.57523874 2.09487724 51.43966484 C2.09671787 52.91036745 2.10031207 54.38106899 2.10573006 55.85176277 C2.11304121 57.91951009 2.11398672 59.98717338 2.11352539 62.05493164 C2.115746 63.22963516 2.11796661 64.40433868 2.12025452 65.61463928 C1.99511629 69.13748442 1.55918677 72.52178317 1 76 C1.66 76 2.32 76 3 76 C3 76.66 3 77.32 3 78 C2.01 77.67 1.02 77.34 0 77 C-1.77007154 51.33396262 -1.00703707 25.67944519 0 0 Z " fill="#5062B6" transform="translate(98,130)"/>
<path d="M0 0 C0.68707555 2.49064888 1 4.37886292 1 7 C1.66 7.66 2.32 8.32 3 9 C2.67 9.33 2.34 9.66 2 10 C0.59037006 19.47930067 0.66697278 29.20299242 0.39453125 38.76367188 C0.35714844 39.92576172 0.31976563 41.08785156 0.28125 42.28515625 C0.23581055 43.86115601 0.23581055 43.86115601 0.18945312 45.46899414 C0 48 0 48 -1 50 C-5.62 50 -10.24 50 -15 50 C-15 49.34 -15 48.68 -15 48 C-8.565 47.505 -8.565 47.505 -2 47 C-2.01047363 45.75387939 -2.02094727 44.50775879 -2.03173828 43.22387695 C-2.06798744 38.59272138 -2.09091844 33.9615783 -2.10986328 29.33032227 C-2.11990963 27.32737111 -2.13354909 25.32443458 -2.15087891 23.3215332 C-2.17518713 20.43957912 -2.18649687 17.55781928 -2.1953125 14.67578125 C-2.20563507 13.78288895 -2.21595764 12.88999664 -2.22659302 11.970047 C-2.22739134 7.5282743 -2.10378748 4.03650573 0 0 Z " fill="#4152C8" transform="translate(124,70)"/>
<path d="M0 0 C1.1859375 0.00257812 2.371875 0.00515625 3.59375 0.0078125 C4.7796875 0.00523438 5.965625 0.00265625 7.1875 0 C10.09375 0.1328125 10.09375 0.1328125 11.09375 1.1328125 C11.16688567 3.66330652 11.18622527 6.16586087 11.15625 8.6953125 C11.15173828 9.40623047 11.14722656 10.11714844 11.14257812 10.84960938 C11.13075864 12.61071263 11.11282263 14.37177286 11.09375 16.1328125 C8.96937788 16.32729727 6.84421809 16.51319539 4.71875 16.6953125 C3.53539062 16.79972656 2.35203125 16.90414062 1.1328125 17.01171875 C-1.90625 17.1328125 -1.90625 17.1328125 -3.90625 16.1328125 C-3.93310095 13.65357449 -3.95301547 11.1746241 -3.96875 8.6953125 C-3.98131836 7.63473633 -3.98131836 7.63473633 -3.99414062 6.55273438 C-4.00278588 4.74587691 -3.95845011 2.93893647 -3.90625 1.1328125 C-2.90625 0.1328125 -2.90625 0.1328125 0 0 Z M-1.90625 2.1328125 C-2.86695434 5.01492552 -3.01206883 6.83131294 -2.96875 9.8203125 C-2.95972656 10.62855469 -2.95070312 11.43679687 -2.94140625 12.26953125 C-2.92980469 12.88441406 -2.91820312 13.49929687 -2.90625 14.1328125 C0.53343692 15.06145368 3.51518083 15.36123181 7.09375 15.1328125 C8.08375 14.4728125 9.07375 13.8128125 10.09375 13.1328125 C10.45835453 10.46627345 10.45835453 10.46627345 10.28125 7.5078125 C10.219375 5.7340625 10.1575 3.9603125 10.09375 2.1328125 C6.13375 2.1328125 2.17375 2.1328125 -1.90625 2.1328125 Z " fill="#5162AD" transform="translate(56.90625,58.8671875)"/>
<path d="M0 0 C7.02453826 0.9646373 12.52150238 5.75008355 16.8125 11.25 C21.34243771 18.24938292 23.62603393 25.70505048 23 34 C22.67 34 22.34 34 22 34 C21.84144531 33.16597656 21.68289062 32.33195312 21.51953125 31.47265625 C19.12282505 19.9128523 15.17471574 10.38607002 4.99609375 3.6796875 C3.35979259 2.73426905 1.68335082 1.85885246 0 1 C0 0.67 0 0.34 0 0 Z " fill="#4756AC" transform="translate(195,30)"/>
<path d="M0 0 C-2.220641 1.1367567 -4.44637519 2.19449205 -6.734375 3.19140625 C-16.13265383 7.46445789 -21.96755655 13.00523038 -27 22 C-27.71143088 23.98451771 -28.38991336 25.98202112 -29 28 C-29.88975707 25.53908963 -30.0830686 24.27641794 -29.3203125 21.73828125 C-24.54811227 12.05352197 -18.0257592 5.14859001 -8 1 C-5.07175348 0.02391783 -3.04386724 -0.08226668 0 0 Z " fill="#5062B2" transform="translate(48,27)"/>
<path d="M0 0 C0.66 0.33 1.32 0.66 2 1 C2 4.63 2 8.26 2 12 C6.29 12 10.58 12 15 12 C15 12.66 15 13.32 15 14 C10.29100905 14.76881485 5.7709748 15.3741941 1 15 C-1.48570024 11.27144964 -1.30344304 8.30889122 -1 4 C-0.5 1.5 -0.5 1.5 0 0 Z " fill="#4955B3" transform="translate(76,86)"/>
<path d="M0 0 C0 0.66 0 1.32 0 2 C-1.19625 2.515625 -2.3925 3.03125 -3.625 3.5625 C-9.2077223 6.35386115 -12.74087111 10.31004282 -15.375 15.9375 C-15.684375 16.9584375 -15.684375 16.9584375 -16 18 C-16.8471982 15.62255005 -17.16474328 14.43159306 -16.25 12.03515625 C-12.59570017 6.26821433 -7.49631451 0 0 0 Z " fill="#4D62AB" transform="translate(47,39)"/>
<path d="M0 0 C0.33 0 0.66 0 1 0 C1 7.59 1 15.18 1 23 C0.34 23 -0.32 23 -1 23 C-2.56987538 19.86024924 -1.86826308 16.60230552 -1.625 13.1875 C-1.58117187 12.47529297 -1.53734375 11.76308594 -1.4921875 11.02929688 C-1.24243552 7.27954843 -0.84910443 3.66266234 0 0 Z " fill="#354ADA" transform="translate(99,147)"/>
<path d="M0 0 C1.98 0 3.96 0 6 0 C4.25 5.75 4.25 5.75 2 8 C1.01 8.495 1.01 8.495 0 9 C0 6.03 0 3.06 0 0 Z " fill="#5D7ADF" transform="translate(77,88)"/>
<path d="M0 0 C1.74565111 3.21639654 2.204437 5.32013404 2 9 C4.43387753 10.21693876 6.41838846 10.31959896 9.125 10.5625 C10.03507813 10.64628906 10.94515625 10.73007813 11.8828125 10.81640625 C12.93082031 10.90728516 12.93082031 10.90728516 14 11 C14 11.33 14 11.66 14 12 C11.87527424 12.05386629 9.75016348 12.09273071 7.625 12.125 C5.84996094 12.15980469 5.84996094 12.15980469 4.0390625 12.1953125 C1 12 1 12 -1 10 C-0.9765625 7.6171875 -0.9765625 7.6171875 -0.625 4.875 C-0.51414063 3.96492187 -0.40328125 3.05484375 -0.2890625 2.1171875 C-0.19367188 1.41851562 -0.09828125 0.71984375 0 0 Z " fill="#4B5BB2" transform="translate(165,200)"/>
<path d="M0 0 C4.22489602 0.53280216 6.54080716 1.87678199 9.8125 4.5625 C10.60269531 5.20316406 11.39289063 5.84382813 12.20703125 6.50390625 C12.79871094 6.99761719 13.39039063 7.49132813 14 8 C13.01 8.33 12.02 8.66 11 9 C9.49068229 7.81879484 7.98708399 6.62587559 6.5625 5.34375 C4.54022294 3.60459173 2.29347493 2.3491029 0 1 C0 0.67 0 0.34 0 0 Z " fill="#4554B9" transform="translate(195,30)"/>
<path d="M0 0 C0.33 0 0.66 0 1 0 C1 4.29 1 8.58 1 13 C0.01 13 -0.98 13 -2 13 C-1.48041715 8.62065881 -0.94324258 4.31196609 0 0 Z " fill="#4560BD" transform="translate(123,195)"/>
<path d="M0 0 C0.99 0.33 1.98 0.66 3 1 C3 2.32 3 3.64 3 5 C2.34 5 1.68 5 1 5 C1 6.65 1 8.3 1 10 C0.67 10 0.34 10 0 10 C0 6.7 0 3.4 0 0 Z " fill="#445DD2" transform="translate(97,178)"/>
<path d="M0 0 C0.66 0.33 1.32 0.66 2 1 C1.34 2.32 0.68 3.64 0 5 C-1.32 5 -2.64 5 -4 5 C-2.68 3.35 -1.36 1.7 0 0 Z " fill="#5E7AE3" transform="translate(37,206)"/>
</svg>
