<?xml version="1.0" encoding="UTF-8"?>
<svg version="1.1" xmlns="http://www.w3.org/2000/svg" width="1024" height="1024">
<path d="M0 0 C1.15068466 -0.0071553 2.30136932 -0.01431061 3.48692322 -0.02168274 C5.36728271 -0.02571609 5.36728271 -0.02571609 7.28562927 -0.02983093 C8.62648696 -0.03610139 9.96734292 -0.0427487 11.30819702 -0.04974365 C15.70357569 -0.07072345 20.09895444 -0.08114277 24.49436951 -0.09111023 C26.01248123 -0.09516055 27.53059278 -0.09927756 29.04870415 -0.10346031 C36.18529664 -0.12250143 43.32187887 -0.13673273 50.45849186 -0.14507228 C58.67146722 -0.15483028 66.88417204 -0.18111651 75.09705216 -0.22157317 C81.46077203 -0.25183485 87.82441481 -0.26655077 94.18820518 -0.26985329 C97.98142301 -0.27219301 101.77435149 -0.28101095 105.56749153 -0.30631447 C109.14221355 -0.32977615 112.71645942 -0.33375692 116.29123878 -0.32355309 C118.20930214 -0.32282993 120.1273423 -0.34179464 122.04530334 -0.36161804 C134.83385704 -0.28574689 145.01323848 2.99414773 154.14280701 12.02998352 C162.77782651 21.34046967 164.38891059 29.74608866 164.79515076 42.08857727 C164.83719635 43.34876175 164.87924194 44.60894623 164.92256165 45.90731812 C165.45753965 63.3163591 165.39110679 80.73595447 165.37083435 98.15132141 C165.36511076 103.11101833 165.36845055 108.0706614 165.37440681 113.03035641 C165.37806475 116.93520495 165.37685063 120.84004125 165.37427902 124.74489021 C165.37362557 126.57161529 165.37438069 128.39834159 165.37675858 130.22506523 C165.38687206 140.15834807 165.24544901 150.07825673 164.86497498 160.00483704 C164.83567965 160.91699195 164.80638432 161.82914686 164.77620125 162.76894283 C164.34256897 172.7170758 161.39747571 181.00083595 154.38890076 188.33076477 C143.24067124 197.75608609 132.50343249 200.18027258 118.24046326 199.14717102 C113.45846867 198.29422607 108.57968286 197.36010367 104.24003601 195.10990906 C99.72552679 193.66093945 95.33907509 193.87247647 90.62620544 193.89179993 C89.55728561 193.88817947 88.48836578 193.88455902 87.38705444 193.88082886 C85.06809594 193.87394089 82.74912124 193.8714283 80.43015289 193.87277603 C76.75582945 193.8737418 73.08179812 193.86079192 69.40751648 193.84379578 C58.96139294 193.79754351 48.51529895 193.7729241 38.06907654 193.76631165 C31.67653803 193.76128958 25.28430392 193.73700242 18.89186859 193.70098495 C16.45991597 193.69120189 14.0279214 193.68884681 11.5959549 193.69415665 C8.18774024 193.70124787 4.78042861 193.68390073 1.37229919 193.66133118 C0.37457993 193.66950363 -0.62313934 193.67767609 -1.65109253 193.68609619 C-11.19018822 193.57413509 -19.65127699 190.16581218 -26.54078674 183.39717102 C-37.21498183 171.81838313 -38.10126305 159.43471149 -37.88453674 144.14717102 C-37.87551331 142.93416321 -37.86648987 141.7211554 -37.85719299 140.47138977 C-37.8398557 138.24478635 -37.81838568 136.01820814 -37.79127502 133.79170227 C-37.76869539 131.9102976 -37.75953674 130.02871118 -37.75953674 128.14717102 C-37.75464637 126.53657406 -37.74929567 124.92597847 -37.7436676 123.31538391 C-37.72556447 117.8070889 -37.71407542 112.29879769 -37.7046051 106.79048157 C-37.69959358 104.41938326 -37.69278259 102.04828801 -37.68409729 99.67720032 C-37.67184974 96.24140166 -37.66626851 92.80564391 -37.66188049 89.36982727 C-37.65671921 88.32561111 -37.65155792 87.28139496 -37.64624023 86.20553589 C-37.64577789 80.020161 -37.97941683 73.94567538 -38.54266357 67.78674316 C-38.79080349 64.76662223 -38.81988097 61.80769722 -38.70875549 58.77998352 C-38.67105042 57.71650696 -38.63334534 56.6530304 -38.59449768 55.55732727 C-38.54583557 54.47322571 -38.49717346 53.38912415 -38.44703674 52.27217102 C-38.39708557 51.13392883 -38.3471344 49.99568665 -38.29566956 48.82295227 C-37.5628592 33.64640654 -36.88232531 19.97482741 -25.14234924 8.97138977 C-17.52233564 3.13770723 -9.54839346 0.0409086 0 0 Z M-19.69703674 21.77217102 C-24.64880892 29.87507095 -25.19979725 38.74854685 -25.1318512 48.03755188 C-25.13550186 49.17080399 -25.13915253 50.30405609 -25.14291382 51.47164917 C-25.15096181 55.18526101 -25.13745581 58.89842853 -25.12281799 62.61201477 C-25.12229866 65.21313476 -25.12281918 67.81425515 -25.12432861 70.41537476 C-25.12520805 75.85459089 -25.11420608 81.29368158 -25.09571838 86.73286438 C-25.07456682 92.99097304 -25.07104077 99.24889803 -25.07728034 105.5070352 C-25.08300715 111.56454779 -25.07718144 117.62198642 -25.0661068 123.67949104 C-25.06227653 126.24016119 -25.06109749 128.80083681 -25.06269264 131.36150932 C-25.06306644 134.95024229 -25.05035485 138.53870375 -25.03419495 142.12739563 C-25.03667236 143.17035797 -25.03914978 144.21332031 -25.04170227 145.28788757 C-25.03576911 159.70912381 -25.03576911 159.70912381 -18.75953674 172.14717102 C-13.97563961 176.86272676 -10.05873991 180.11192312 -3.10328674 180.18623352 C-1.99984924 180.1733429 -0.89641174 180.16045227 0.24046326 180.14717102 C0.25077072 179.44781937 0.26107819 178.74846771 0.271698 178.02792358 C0.36951358 171.45003439 0.47200483 164.87223682 0.57980251 158.29450321 C0.63506128 154.9124998 0.68848582 151.53048778 0.73777771 148.14839172 C0.79447272 144.26377675 0.8590391 140.37931224 0.92405701 136.49482727 C0.94912575 134.66517174 0.94912575 134.66517174 0.97470093 132.79855347 C0.99464615 131.67746689 1.01459137 130.55638031 1.03514099 129.40132141 C1.05068527 128.40870804 1.06622955 127.41609467 1.08224487 126.3934021 C1.24046326 124.14717102 1.24046326 124.14717102 2.24046326 123.14717102 C4.53035107 122.9882901 6.82489767 122.89579029 9.11936951 122.83076477 C9.80603195 122.80998367 10.4926944 122.78920258 11.20016479 122.76779175 C13.4009926 122.70222959 15.60194301 122.64338087 17.80296326 122.58467102 C19.2919084 122.5414921 20.78084099 122.49787802 22.26976013 122.45381165 C25.92653718 122.34571952 29.58340273 122.24669728 33.24046326 122.14717102 C33.57046326 112.57717102 33.90046326 103.00717102 34.24046326 93.14717102 C45.46046326 93.14717102 56.68046326 93.14717102 68.24046326 93.14717102 C69.09834898 87.32063136 69.09834898 87.32063136 69.35398865 81.58882141 C69.35380737 80.34147217 69.35380737 80.34147217 69.35362244 79.06892395 C69.34850647 78.21947205 69.3433905 77.37002014 69.33811951 76.49482727 C69.33711243 75.6958905 69.33610535 74.89695374 69.33506775 74.07380676 C69.32987688 71.11908003 69.31591594 68.16437392 69.30296326 65.20967102 C69.28233826 58.58904602 69.26171326 51.96842102 69.24046326 45.14717102 C83.43046326 45.14717102 97.62046326 45.14717102 112.24046326 45.14717102 C112.57046326 45.80717102 112.90046326 46.46717102 113.24046326 47.14717102 C112.91046326 47.47717102 112.58046326 47.80717102 112.24046326 48.14717102 C112.139521 50.71738945 112.10075089 53.26015134 112.10765076 55.83076477 C112.10669403 56.60146805 112.1057373 57.37217133 112.10475159 58.16622925 C112.10406977 59.79960715 112.10592417 61.43298775 112.11009216 63.06636047 C112.11543319 65.57057274 112.11015102 68.07460505 112.10374451 70.57881165 C112.10440543 72.16279642 112.10568689 73.74678108 112.10765076 75.33076477 C112.10461441 76.45894875 112.10461441 76.45894875 112.10151672 77.60992432 C112.04349962 81.50649101 112.04349962 81.50649101 113.24046326 85.14717102 C122.15046326 85.14717102 131.06046326 85.14717102 140.24046326 85.14717102 C139.91046326 88.77717102 139.58046326 92.40717102 139.24046326 96.14717102 C122.51797002 97.22232558 122.51797002 97.22232558 116.74046326 97.14717102 C115.58546326 97.14717102 114.43046326 97.14717102 113.24046326 97.14717102 C111.48173184 98.90590244 112.10802858 101.22528695 112.09382629 103.5690155 C112.09427948 104.34616913 112.09473267 105.12332275 112.09519958 105.92402649 C112.09184097 106.73865356 112.08848236 107.55328064 112.08502197 108.39259338 C112.07548183 111.09986372 112.07356725 113.8070724 112.07249451 116.51435852 C112.06928375 118.38904344 112.06591982 120.2637281 112.06240845 122.13841248 C112.05640929 126.07444337 112.05456932 130.01045228 112.05516052 133.94648743 C112.05526212 138.99633932 112.04161581 144.04605052 112.02438831 149.09586906 C112.01328236 152.9699824 112.01124089 156.84406161 112.01177025 160.71818924 C112.01058778 162.58016062 112.00615115 164.44213281 111.99843788 166.30408859 C111.98866746 168.90666867 111.99150445 171.50894173 111.99754333 174.11152649 C111.99192383 174.88463165 111.98630432 175.65773682 111.98051453 176.45426941 C112.00284108 180.23064612 112.09195457 181.924408 114.24046326 185.14717102 C123.8933855 187.67531732 132.72400873 185.90539829 141.49046326 181.52217102 C146.18586122 177.4670546 150.0261145 172.31606198 151.24046326 166.14717102 C151.33664149 164.31091914 151.37956735 162.471579 151.38763428 160.63282776 C151.39478958 159.51139374 151.40194489 158.38995972 151.40931702 157.23454285 C151.41200592 156.00849335 151.41469482 154.78244385 151.41746521 153.51924133 C151.42732201 151.577173 151.42732201 151.577173 151.43737793 149.59587097 C151.45837564 145.30569183 151.46877626 141.01551252 151.47874451 136.72529602 C151.48279366 135.24579093 151.48691063 133.76628603 151.49109459 132.28678131 C151.5101368 125.33493559 151.52436989 118.38310042 151.53270656 111.43123364 C151.54247587 103.41799728 151.56879123 95.40503737 151.60920745 87.39189839 C151.63940799 81.19046781 151.65417915 74.9891163 151.65748757 68.78761363 C151.65983355 65.0872855 151.66873461 61.38725305 151.69394875 57.68700409 C151.72164849 53.55538646 151.71738636 49.42438353 151.71043396 45.29267883 C151.72324402 44.07472626 151.73605408 42.85677368 151.74925232 41.60191345 C151.69774133 33.19916022 150.47970698 27.89787428 144.86546326 21.39717102 C139.26351308 16.59549944 135.03058062 14.03382234 127.63204956 13.99327087 C126.4643956 13.98467041 125.29674164 13.97606995 124.09370422 13.96720886 C122.81109711 13.96294891 121.52848999 13.95868896 120.20701599 13.95429993 C118.84350374 13.94639665 117.47999358 13.93812756 116.1164856 13.92951965 C111.63569633 13.90331597 107.15489783 13.88798928 102.67405701 13.87373352 C101.12928321 13.86837233 99.58450948 13.86299482 98.03973579 13.85760117 C91.61016238 13.83597095 85.18059145 13.81723736 78.75099087 13.80597878 C69.55086346 13.78976105 60.35115981 13.75663831 51.15119213 13.69957793 C44.67544511 13.66079098 38.199811 13.64133552 31.72395092 13.63605821 C27.86027354 13.63241542 23.99704831 13.62051035 20.13349724 13.58795547 C16.49307783 13.55772146 12.85338044 13.55161666 9.21286201 13.56333923 C7.25381297 13.56366269 5.29480748 13.53929703 3.33592224 13.51396179 C-5.96888252 13.57914818 -12.69247952 15.51277946 -19.69703674 21.77217102 Z M81.24046326 57.14717102 C81.24046326 98.06717102 81.24046326 138.98717102 81.24046326 181.14717102 C87.18046326 181.14717102 93.12046326 181.14717102 99.24046326 181.14717102 C100.46762159 180.14112537 100.46762159 180.14112537 100.36351109 178.10318661 C100.36258929 177.1970641 100.3616675 176.2909416 100.36071777 175.35736084 C100.36209244 174.32104523 100.3634671 173.28472961 100.36488342 172.2170105 C100.36128815 171.07046494 100.35769287 169.92391937 100.35398865 168.74263 C100.35420769 166.9428772 100.35420769 166.9428772 100.35443115 165.10676575 C100.35385219 161.80731911 100.34882303 158.50793438 100.34185719 155.20849872 C100.33562298 151.76382805 100.3350198 148.31915664 100.33383179 144.8744812 C100.33071867 138.34734372 100.32250555 131.82022291 100.3124823 125.29309279 C100.30132055 117.86395086 100.29581056 110.43480816 100.29078686 103.00565994 C100.28032292 87.71948704 100.26252337 72.43333183 100.24046326 57.14717102 C93.97046326 57.14717102 87.70046326 57.14717102 81.24046326 57.14717102 Z M45.24046326 105.14717102 C45.21791133 114.90868502 45.19954765 124.67018185 45.18865108 134.43171597 C45.18342248 138.96391196 45.17632525 143.49608929 45.1650238 148.02827454 C45.15419411 152.39839932 45.14818625 156.7685061 45.14558601 161.13864326 C45.14373191 162.80968065 45.14011158 164.48071699 45.1347332 166.15174675 C45.12752167 168.48414653 45.12647236 170.81647095 45.12693787 173.14888 C45.12334259 173.84659012 45.11974731 174.54430023 45.11604309 175.26315308 C44.84983859 178.48376484 44.84983859 178.48376484 46.24046326 181.14717102 C47.79001885 181.24616625 49.34399998 181.27796626 50.89671326 181.27998352 C51.83643982 181.28127258 52.77616638 181.28256165 53.74436951 181.28388977 C55.22743591 181.27808899 55.22743591 181.27808899 56.74046326 181.27217102 C58.22352966 181.2779718 58.22352966 181.2779718 59.73655701 181.28388977 C61.14614685 181.28195618 61.14614685 181.28195618 62.58421326 181.27998352 C63.88648865 181.27829163 63.88648865 181.27829163 65.21507263 181.27656555 C67.23650479 181.37132472 67.23650479 181.37132472 68.24046326 180.14717102 C68.49248155 177.51497994 68.67284115 174.91156147 68.80296326 172.27217102 C68.86556335 171.01315979 68.86556335 171.01315979 68.9294281 169.72871399 C69.88102783 148.19925567 69.11299651 126.66446428 68.24046326 105.14717102 C60.65046326 105.14717102 53.06046326 105.14717102 45.24046326 105.14717102 Z M13.24046326 135.14717102 C11.69544875 136.69218553 12.11327194 138.13377322 12.11106873 140.28388977 C12.10791656 141.16149963 12.1047644 142.0391095 12.10151672 142.9433136 C12.10354095 143.89746155 12.10556519 144.8516095 12.10765076 145.83467102 C12.10669403 146.80751038 12.1057373 147.78034973 12.10475159 148.78266907 C12.10406967 150.84394902 12.10592473 152.90523111 12.11009216 154.96650696 C12.11544025 158.1335479 12.11014754 161.30044702 12.10374451 164.46748352 C12.10440529 166.46487967 12.10568644 168.46227573 12.10765076 170.45967102 C12.10562653 171.41381897 12.10360229 172.36796692 12.10151672 173.35102844 C12.10466888 174.22863831 12.10782104 175.10624817 12.11106873 176.01045227 C12.11186432 176.78687073 12.11265991 177.56328918 12.11347961 178.36323547 C12.04642784 180.17150764 12.04642784 180.17150764 13.24046326 181.14717102 C19.84046326 181.14717102 26.44046326 181.14717102 33.24046326 181.14717102 C33.24046326 165.96717102 33.24046326 150.78717102 33.24046326 135.14717102 C26.64046326 135.14717102 20.04046326 135.14717102 13.24046326 135.14717102 Z " fill="#5874DA" transform="translate(131.75953674316406,399.8528289794922)"/>
<path d="M0 0 C7.48532285 -0.06998645 14.97061112 -0.1230553 22.4561882 -0.15543652 C25.93331334 -0.17099005 29.41021211 -0.19203537 32.88720703 -0.22631836 C36.89878317 -0.26561778 40.91012731 -0.27979421 44.921875 -0.29296875 C46.15049255 -0.30845261 47.37911011 -0.32393646 48.6449585 -0.33988953 C61.86473448 -0.34242741 74.38542631 2.24991134 84.51171875 11.2265625 C93.54793678 20.63617796 97.42453198 31.01687996 98 44 C97.63195101 54.88712659 94.62673621 64.56358495 87.5 72.9375 C86.675 73.618125 85.85 74.29875 85 75 C84.071875 75.845625 83.14375 76.69125 82.1875 77.5625 C70.46830979 87.00295878 55.59042795 87.45650894 41.1875 87.6875 C36.175625 87.790625 31.16375 87.89375 26 88 C26 103.51 26 119.02 26 135 C6 136 6 136 0 134 C0.03552979 133.07251953 0.07105957 132.14503906 0.10766602 131.18945312 C0.23765169 127.71564562 0.36182004 124.24172751 0.48217773 120.76757812 C0.53522151 119.27009925 0.59051613 117.7726982 0.64819336 116.27539062 C0.7311675 114.11084783 0.80577507 111.94614514 0.87890625 109.78125 C0.94960327 107.8331543 0.94960327 107.8331543 1.02172852 105.84570312 C1.08145841 102.01510572 1.08145841 102.01510572 0.50672913 98.31158447 C-0.06557637 93.91671953 -0.14090641 89.59611993 -0.12939453 85.16894531 C-0.13114685 84.32564163 -0.13289917 83.48233795 -0.13470459 82.61347961 C-0.13907312 79.85167325 -0.1362039 77.08993191 -0.1328125 74.328125 C-0.13348672 72.39857979 -0.13445774 70.46903467 -0.13571167 68.53948975 C-0.13718165 64.50825181 -0.13505567 60.47703612 -0.13037109 56.44580078 C-0.12465887 51.27858345 -0.12796667 46.11141789 -0.13394356 40.94420242 C-0.137555 36.96540943 -0.13640816 32.98662875 -0.13381577 29.00783539 C-0.13314891 27.102038 -0.1339665 25.1962395 -0.13629532 23.29044342 C-0.13883305 20.63142425 -0.13496606 17.97248944 -0.12939453 15.31347656 C-0.13141876 14.52691177 -0.13344299 13.74034698 -0.13552856 12.9299469 C-0.11408443 7.40911523 -0.11408443 7.40911523 0.57043648 4.95437241 C1.21860522 2.80163081 1.21860522 2.80163081 0 0 Z M26 22 C26 36.19 26 50.38 26 65 C32.1875 65.061875 32.1875 65.061875 38.5 65.125 C39.78455078 65.14320801 41.06910156 65.16141602 42.39257812 65.18017578 C52.17116865 65.22733451 60.15883202 64.28738815 68 58 C72.52062404 52.02111014 72.7145966 45.26674291 72 38 C70.24959715 32.05863261 67.01421592 28.47925186 62 25 C56.58240258 22.29120129 50.93113163 21.87148901 44.9453125 21.90234375 C43.44508545 21.90609009 43.44508545 21.90609009 41.91455078 21.90991211 C40.66399902 21.91901611 39.41344727 21.92812012 38.125 21.9375 C34.12375 21.958125 30.1225 21.97875 26 22 Z " fill="#000A1C" transform="translate(352,431)"/>
<path d="M0 0 C0.99 0.33 1.98 0.66 3 1 C4.68873879 2.64429829 6.35305515 4.31384218 8 6 C8.7940625 6.60585938 9.588125 7.21171875 10.40625 7.8359375 C16.57891979 12.98602645 21.45853405 20.37560214 24 28 C24 28.99 24 29.98 24 31 C25.485 31.495 25.485 31.495 27 32 C26.34 32 25.68 32 25 32 C25.24121582 32.86238281 25.24121582 32.86238281 25.48730469 33.7421875 C28.77668781 48.22800423 25.63400632 63.94438228 17.86328125 76.31640625 C10.45891641 86.98055436 -1.48014048 94.12881786 -14.203125 96.61328125 C-22.44062851 97.45228624 -30.73262236 97.22863972 -39 97 C-39 96.34 -39 95.68 -39 95 C-40.98 95 -42.96 95 -45 95 C-45 94.34 -45 93.68 -45 93 C-45.804375 92.79375 -46.60875 92.5875 -47.4375 92.375 C-55.32512055 89.33065523 -60.83535404 84.57010699 -66 78 C-66.66 77.34 -67.32 76.68 -68 76 C-75.79563929 63.0844524 -78.10960032 48.62323716 -74.875 33.875 C-70.77262802 19.54531928 -63.07216333 8.34466909 -50 1 C-34.21583173 -7.69564179 -16.36179027 -5.95877036 0 0 Z M-42 23 C-48.46141387 29.60826418 -51.08860604 37.08219071 -51.25 46.1875 C-51.09967066 55.52044676 -48.874279 62.30058369 -42.296875 69.08203125 C-36.00814933 74.33333108 -29.46580574 75.46042319 -21.4453125 75.23828125 C-14.57666758 74.5689724 -8.77028403 71.30493467 -4.1875 66.125 C1.4459464 58.07721943 2.78398078 50.03198815 1.375 40.4375 C-0.35928262 32.35939413 -3.70849137 25.97259216 -10.6015625 21.21875 C-21.45961286 15.70130422 -32.03377215 16.1003038 -42 23 Z " fill="#000B1C" transform="translate(772,471)"/>
<path d="M0 0 C0.33 0.66 0.66 1.32 1 2 C1.74161377 1.98428955 2.48322754 1.9685791 3.24731445 1.95239258 C6.60229896 1.89009286 9.95716186 1.85102493 13.3125 1.8125 C14.47974609 1.78736328 15.64699219 1.76222656 16.84960938 1.73632812 C17.96787109 1.72666016 19.08613281 1.71699219 20.23828125 1.70703125 C21.26993408 1.6913208 22.30158691 1.67561035 23.36450195 1.65942383 C26 2 26 2 27.67285156 3.21020508 C29.27874591 5.37591727 30.64994783 7.59240421 31.99609375 9.9296875 C32.55490234 10.89003906 33.11371094 11.85039062 33.68945312 12.83984375 C34.26630859 13.84144531 34.84316406 14.84304688 35.4375 15.875 C36.57828396 17.85372763 37.72270772 19.83036214 38.87109375 21.8046875 C39.37568115 22.68108887 39.88026855 23.55749023 40.40014648 24.46044922 C42.09125991 27.14486275 43.97580531 29.55979236 46 32 C51.66130385 23.61245351 57.19771848 15.18904687 62.40625 6.51171875 C64 4 64 4 66 2 C68.70556641 1.68115234 68.70556641 1.68115234 72.1015625 1.5859375 C73.31328125 1.54726563 74.525 1.50859375 75.7734375 1.46875 C77.04445313 1.4378125 78.31546875 1.406875 79.625 1.375 C80.90375 1.33632813 82.1825 1.29765625 83.5 1.2578125 C86.66652017 1.16328951 89.8330304 1.07773643 93 1 C92.144082 5.05152579 90.19129095 7.78957082 87.75 11.0625 C86.83935817 12.30989482 85.93060471 13.55866974 85.0234375 14.80859375 C84.53584961 15.48003418 84.04826172 16.15147461 83.54589844 16.84326172 C80.76114368 20.72837282 78.06903379 24.67667803 75.375 28.625 C74.82465088 29.43114746 74.27430176 30.23729492 73.70727539 31.06787109 C69.42759255 37.34951649 65.18996677 43.65808654 61 50 C64.78439412 56.21260604 68.78651779 62.16667442 73.125 68 C77.58098251 74.00089109 81.89208572 80.08962931 86.125 86.25 C86.6936377 87.07242188 87.26227539 87.89484375 87.84814453 88.7421875 C88.63874268 89.89847656 88.63874268 89.89847656 89.4453125 91.078125 C89.91469238 91.76293945 90.38407227 92.44775391 90.86767578 93.15332031 C92 95 92 95 93 98 C93.66 98 94.32 98 95 98 C95 98.66 95 99.32 95 100 C71.180096 102.35112436 71.180096 102.35112436 64.86962891 98.80175781 C61.56433797 95.54893181 59.82795923 91.50298412 58.05126953 87.27734375 C56.12068082 83.09514878 53.44026189 79.37542119 50.875 75.5625 C49.93147963 74.10767863 48.99105906 72.65083909 48.0546875 71.19140625 C47.03761719 69.61166016 47.03761719 69.61166016 46 68 C41.21954814 74.58499329 36.82667484 81.36935086 32.55322266 88.2890625 C31.7488155 89.59103777 30.9310199 90.88485006 30.09912109 92.16943359 C28.81717774 94.20073946 28.81717774 94.20073946 27.58984375 97.4296875 C23.04243886 101.94279823 16.87429655 100.88712732 10.75 100.875 C8.77386719 100.9059375 8.77386719 100.9059375 6.7578125 100.9375 C3.50457887 100.98464831 0.25350591 101.00443602 -3 101 C-2.39096119 97.85843632 -1.37943189 95.83265236 0.51953125 93.26953125 C1.30239502 92.2012207 1.30239502 92.2012207 2.10107422 91.11132812 C2.66584473 90.35271484 3.23061523 89.59410156 3.8125 88.8125 C4.99953537 87.19462452 6.18571292 85.57611936 7.37109375 83.95703125 C7.97550293 83.13412598 8.57991211 82.3112207 9.20263672 81.46337891 C12.48141738 76.96964122 15.68323826 72.42166058 18.86889648 67.86157227 C20.99024987 64.82753107 23.12712475 61.83356694 25.375 58.890625 C26.035 58.01921875 26.695 57.1478125 27.375 56.25 C28.22191406 55.17492187 28.22191406 55.17492187 29.0859375 54.078125 C30.27971433 51.95836679 30.27971433 51.95836679 29.2890625 49.43359375 C27.25906912 45.60121231 25.07423982 42.07423982 22 39 C20.17139928 36.20534607 18.4182115 33.36830666 16.65625 30.53125 C15.09838808 27.96202966 15.09838808 27.96202966 13 26 C11.91355937 24.34883957 10.85490965 22.67930526 9.8125 21 C6.83822774 16.22864113 3.63339933 11.73011379 0.1875 7.2890625 C-1.30040015 4.42093918 -0.94057431 3.02480148 0 0 Z " fill="#010A1B" transform="translate(502,466)"/>
<path d="M0 0 C8.25 0 16.5 0 25 0 C25.495 54.945 25.495 54.945 26 111 C44.38465812 110.96038909 44.38465812 110.96038909 62.76928711 110.90991211 C65.06363885 110.90699319 67.35799111 110.90444457 69.65234375 110.90234375 C70.85636841 110.89722778 72.06039307 110.89211182 73.30090332 110.88684082 C74.4377356 110.88671997 75.57456787 110.88659912 76.74584961 110.88647461 C77.73846298 110.884254 78.73107635 110.88203339 79.75376892 110.87974548 C82 111 82 111 83 112 C83 114.15108108 82.99518604 116.30231659 82.9609375 118.453125 C83.00989302 121.64502477 83.452366 124.71419598 83.9765625 127.859375 C84 130 84 130 82 135 C55.27 135 28.54 135 1 135 C0.23469022 131.17345111 -0.12394167 128.27963211 -0.12025452 124.46342468 C-0.12231651 122.81235466 -0.12231651 122.81235466 -0.12442017 121.12792969 C-0.12082489 119.93031006 -0.11722961 118.73269043 -0.11352539 117.4987793 C-0.11367142 116.23008499 -0.11381744 114.96139069 -0.1139679 113.6542511 C-0.11425437 110.18356926 -0.10838179 106.71292209 -0.10139394 103.2422483 C-0.09513553 99.61208762 -0.09455463 95.98192611 -0.09336853 92.35176086 C-0.09026255 85.48122207 -0.08205904 78.61069922 -0.07201904 71.74016744 C-0.06083514 63.91674427 -0.05534171 56.09332032 -0.05032361 48.26989114 C-0.03987582 32.17991663 -0.02153944 16.08996407 0 0 Z " fill="#000A1C" transform="translate(608,431)"/>
<path d="M0 0 C0 5.94 0 11.88 0 18 C-4.32927001 19.0823175 -7.92246448 18.99167361 -12.34375 18.83984375 C-15.15005651 19.00904752 -16.69288802 19.4112388 -19 21 C-20.15570704 24.46712111 -20.32835293 27.5414956 -20.5625 31.1875 C-20.64628906 32.45980469 -20.73007812 33.73210937 -20.81640625 35.04296875 C-20.90728516 36.50669922 -20.90728516 36.50669922 -21 38 C-20.01 38 -19.02 38 -18 38 C-17.505 37.01 -17.505 37.01 -17 36 C-16.67 36.33 -16.34 36.66 -16 37 C-13.30764224 37.23678716 -10.63501844 37.42198025 -7.9375 37.5625 C-6.79958008 37.62727539 -6.79958008 37.62727539 -5.63867188 37.69335938 C-3.75934562 37.79973633 -1.87969756 37.90039934 0 38 C1.30882533 44.69871231 1.06424437 51.19009727 1 58 C-6.26 58 -13.52 58 -21 58 C-20.67 83.41 -20.34 108.82 -20 135 C-28.58 135 -37.16 135 -46 135 C-46.66 134.34 -47.32 133.68 -48 133 C-47.34 132.67 -46.68 132.34 -46 132 C-45.93058047 122.77732913 -45.87722992 113.55474778 -45.84456348 104.33187294 C-45.82888757 100.04960548 -45.80761451 95.76751636 -45.77368164 91.48535156 C-45.74115636 87.3551088 -45.7231615 83.22503789 -45.71536827 79.09467697 C-45.70981242 77.51654732 -45.69896354 75.93842739 -45.68280983 74.36037064 C-45.66112562 72.15491439 -45.65802918 69.95017408 -45.65942383 67.74462891 C-45.65276199 66.48776276 -45.64610016 65.23089661 -45.63923645 63.9359436 C-45.75828842 62.96708221 -45.87734039 61.99822083 -46 61 C-49.60178588 58.59880941 -52.50866369 58.56228678 -56.6875 58.375 C-57.38939453 58.33632813 -58.09128906 58.29765625 -58.81445312 58.2578125 C-60.54254655 58.1637666 -62.27123675 58.0808032 -64 58 C-64.98600987 53.89162554 -65.13389122 50.03138166 -65.125 45.8125 C-65.12757813 44.58144531 -65.13015625 43.35039062 -65.1328125 42.08203125 C-65 39 -65 39 -64 37 C-58.06 37 -52.12 37 -46 37 C-46.33 35.68 -46.66 34.36 -47 33 C-46.67 32.34 -46.34 31.68 -46 31 C-45.89520638 28.83426521 -45.81596024 26.66726513 -45.75 24.5 C-45.17647289 16.01875067 -42.98631303 9.45772775 -36.6875 3.5625 C-26.06712451 -4.62837783 -12.01842526 -4.72856076 0 0 Z " fill="#010A1B" transform="translate(864,431)"/>
<path d="M0 0 C7.59 0 15.18 0 23 0 C23.06058594 1.78148437 23.12117187 3.56296875 23.18359375 5.3984375 C23.26798797 7.7239671 23.35263653 10.04948748 23.4375 12.375 C23.47681641 13.550625 23.51613281 14.72625 23.55664062 15.9375 C23.59853516 17.05898438 23.64042969 18.18046875 23.68359375 19.3359375 C23.72025146 20.37282715 23.75690918 21.4097168 23.79467773 22.47802734 C23.84164223 24.99425166 23.84164223 24.99425166 25 27 C25.85722656 26.98839844 26.71445312 26.97679687 27.59765625 26.96484375 C28.74105469 26.95582031 29.88445313 26.94679688 31.0625 26.9375 C32.18785156 26.92589844 33.31320312 26.91429687 34.47265625 26.90234375 C38 27 38 27 45 28 C45 34.6 45 41.2 45 48 C37.74 48 30.48 48 23 48 C23.495 51.465 23.495 51.465 24 55 C24.06631781 56.38931029 24.09976636 57.781099 24.08178711 59.171875 C24.0752562 59.90954102 24.06872528 60.64720703 24.06199646 61.40722656 C24.05056107 62.1803418 24.03912567 62.95345703 24.02734375 63.75 C24.01470155 65.4270813 24.00234029 67.10416474 23.99023438 68.78125 C23.96542719 71.39460093 23.93739999 74.00783734 23.90405273 76.62109375 C23.87369955 79.16406953 23.85603595 81.70690001 23.83984375 84.25 C23.82638412 85.02311523 23.8129245 85.79623047 23.79905701 86.59277344 C23.7768266 91.44622429 24.34816635 95.41930321 26 100 C28.40707136 102.40707136 30.61905891 103.57738236 34 104 C35.33599921 103.67751743 36.66893378 103.34227417 38 103 C40.31 103 42.62 103 45 103 C45 108.28 45 113.56 45 119 C45.99 119.495 45.99 119.495 47 120 C46.34 120 45.68 120 45 120 C45.33 120.99 45.66 121.98 46 123 C39.78241103 127.14505931 30.52680497 127.59026025 23.265625 126.375 C13.66413838 123.54322514 7.29211515 119.55983686 2 111 C-0.20592641 106.56459636 -0.66656293 102.11207935 -1.1875 97.25 C-1.28224609 96.48945312 -1.37699219 95.72890625 -1.47460938 94.9453125 C-2.00498143 90.16791532 -1.89472482 85.81436401 -1.26000977 81.05322266 C-0.92184779 78.38285439 -0.86728161 75.75235992 -0.875 73.0625 C-0.87242187 72.14597656 -0.86984375 71.22945312 -0.8671875 70.28515625 C-0.85101051 67.96917568 -0.85101051 67.96917568 -2 66 C-1.34 66 -0.68 66 0 66 C-0.0721875 65.43152344 -0.144375 64.86304688 -0.21875 64.27734375 C-1.75370121 51.50740242 -1.75370121 51.50740242 0 48 C-4.95 48 -9.9 48 -15 48 C-14.67 41.4 -14.34 34.8 -14 28 C-11.47946405 26.73973202 -10.1457902 27.08125555 -7.375 27.4375 C-6.55773437 27.53933594 -5.74046875 27.64117187 -4.8984375 27.74609375 C-4.27195312 27.82988281 -3.64546875 27.91367187 -3 28 C-2.2861014 25.53155755 -2.2861014 25.53155755 -2 23 C-1.85966889 21.02043559 -1.7125877 19.04134859 -1.5625 17.0625 C-1.48128906 15.98097656 -1.40007813 14.89945312 -1.31640625 13.78515625 C-0.93189339 9.18524312 -0.4593048 4.59304801 0 0 Z " fill="#000B1C" transform="translate(884,441)"/>
<path d="M0 0 C1.99892754 -0.25792613 3.99776263 -0.51789345 5.9921875 -0.80859375 C8.48347035 -1.04608959 10.6001844 -0.67494814 13 0 C13.88562999 5.29725374 14.13302463 10.36867663 14.09765625 15.73339844 C14.09619598 16.57816238 14.09473572 17.42292633 14.0932312 18.29328918 C14.08944401 20.11568544 14.08334752 21.93807808 14.07516479 23.7604599 C14.06234841 26.64347572 14.05587267 29.52644531 14.05102539 32.40948486 C14.039629 38.52301077 14.02036835 44.63649827 14 50.75 C13.97640623 57.84936497 13.95602861 64.94870844 13.94406128 72.04810333 C13.93757169 74.89047645 13.92506753 77.73278317 13.91235352 80.57513428 C13.90872221 82.31148216 13.90537033 84.04783065 13.90234375 85.78417969 C13.89717743 86.5759108 13.89201111 87.36764191 13.88668823 88.18336487 C13.88637664 91.39250658 13.97743125 93.93229374 15 97 C6.94463602 101.02768199 -2.99382928 98 -12 98 C-11.67 65.66 -11.34 33.32 -11 0 C-3 -1 -3 -1 0 0 Z " fill="#010B1C" transform="translate(473,468)"/>
<path d="M0 0 C8.25 0 16.5 0 25 0 C25.15321687 13.73427695 25.30200208 27.46858222 25.4429636 41.20299053 C25.5085937 47.58026653 25.57617371 53.9575095 25.64819336 60.3347168 C25.71761131 66.48787644 25.78192894 72.64107011 25.84269524 78.79432106 C25.86678983 81.1430944 25.89272905 83.49184955 25.92053413 85.84058189 C25.95913407 89.12766045 25.99120339 92.41474223 26.02172852 95.7019043 C26.03467453 96.6751062 26.04762054 97.64830811 26.06095886 98.65100098 C26.06799835 99.54977463 26.07503784 100.44854828 26.08229065 101.3745575 C26.09058679 102.15162898 26.09888292 102.92870047 26.10743046 103.72931957 C25.9890213 106.23204894 25.54659459 108.55793741 25 111 C24.34 111 23.68 111 23 111 C23 75.03 23 39.06 23 2 C16.4 2 9.8 2 3 2 C3.33 44.57 3.66 87.14 4 131 C29.08 131.33 54.16 131.66 80 132 C80.33 130.35 80.66 128.7 81 127 C81.33 127 81.66 127 82 127 C82 129.64 82 132.28 82 135 C55.27 135 28.54 135 1 135 C0.23469022 131.17345111 -0.12394167 128.27963211 -0.12025452 124.46342468 C-0.12231651 122.81235466 -0.12231651 122.81235466 -0.12442017 121.12792969 C-0.12082489 119.93031006 -0.11722961 118.73269043 -0.11352539 117.4987793 C-0.11367142 116.23008499 -0.11381744 114.96139069 -0.1139679 113.6542511 C-0.11425437 110.18356926 -0.10838179 106.71292209 -0.10139394 103.2422483 C-0.09513553 99.61208762 -0.09455463 95.98192611 -0.09336853 92.35176086 C-0.09026255 85.48122207 -0.08205904 78.61069922 -0.07201904 71.74016744 C-0.06083514 63.91674427 -0.05534171 56.09332032 -0.05032361 48.26989114 C-0.03987582 32.17991663 -0.02153944 16.08996407 0 0 Z " fill="#040810" transform="translate(608,431)"/>
<path d="M0 0 C3.9512499 2.04231271 6.43822517 4.10697141 7.9765625 8.26953125 C8.75309828 13.39990249 8.76745059 17.77676256 5.8515625 22.20703125 C2.20234862 26.54111161 -1.32806931 28.08115701 -6.9609375 28.70703125 C-11.39055692 28.51222963 -14.6047579 27.05640424 -18.0234375 24.26953125 C-21.38925283 20.47220114 -22.70780542 17.44249647 -22.40234375 12.2890625 C-21.59985599 8.01188548 -19.78640434 4.81783633 -16.515625 1.9453125 C-11.42992335 -1.42544325 -5.75645733 -2.07810332 0 0 Z " fill="#010B1C" transform="translate(482.0234375,428.73046875)"/>
<path d="M0 0 C6.6 0 13.2 0 20 0 C20 0.33 20 0.66 20 1 C14.06 1 8.12 1 2 1 C2.01160156 2.93746094 2.02320313 4.87492187 2.03515625 6.87109375 C2.04453221 9.39322821 2.05363262 11.9153637 2.0625 14.4375 C2.07087891 15.71689453 2.07925781 16.99628906 2.08789062 18.31445312 C2.09272461 20.13686523 2.09272461 20.13686523 2.09765625 21.99609375 C2.10551147 23.68496704 2.10551147 23.68496704 2.11352539 25.40795898 C2 28 2 28 1 29 C-3.33530918 29.14393457 -7.66157731 29.04212061 -12 29 C-12 34.28 -12 39.56 -12 45 C-8.94010417 44.96744792 -5.88020833 44.93489583 -2.8203125 44.90234375 C0 45 0 45 2 46 C2 61.84 2 77.68 2 94 C1.01 94.495 1.01 94.495 0 95 C-0.16971023 92.02097935 -0.33583751 89.04182744 -0.5 86.0625 C-0.57154297 84.81629883 -0.57154297 84.81629883 -0.64453125 83.54492188 C-0.87288287 79.35303863 -1.01585865 75.19465177 -0.96875 70.99609375 C-0.70505395 67.2230541 -0.70505395 67.2230541 -2 65 C-1.34 65 -0.68 65 0 65 C-0.0721875 64.43152344 -0.144375 63.86304688 -0.21875 63.27734375 C-1.75370121 50.50740242 -1.75370121 50.50740242 0 47 C-4.95 47 -9.9 47 -15 47 C-14.67 40.4 -14.34 33.8 -14 27 C-11.47946405 25.73973202 -10.1457902 26.08125555 -7.375 26.4375 C-6.55773437 26.53933594 -5.74046875 26.64117187 -4.8984375 26.74609375 C-4.27195312 26.82988281 -3.64546875 26.91367187 -3 27 C-2.2861014 24.53155755 -2.2861014 24.53155755 -2 22 C-1.86008946 19.99957694 -1.71293731 17.99965897 -1.5625 16 C-1.48128906 14.906875 -1.40007813 13.81375 -1.31640625 12.6875 C-0.95290986 8.45119638 -0.46954049 4.22586437 0 0 Z " fill="#02050D" transform="translate(884,442)"/>
<path d="M0 0 C2.5923633 2.5923633 2.25115599 3.62382385 2.25396729 7.23155212 C2.25960693 8.34063431 2.26524658 9.44971649 2.27105713 10.59240723 C2.26700867 11.81480103 2.26296021 13.03719482 2.25878906 14.29663086 C2.2622937 15.57957535 2.26579834 16.86251984 2.26940918 18.18434143 C2.27854667 21.70914362 2.27498314 25.23382907 2.26865101 28.75863338 C2.26359694 32.44346739 2.26828091 36.12829122 2.27142334 39.81312561 C2.27506518 46.00295816 2.27025868 52.19274304 2.26074219 58.38256836 C2.249862 65.54213057 2.25337913 72.70157884 2.264395 79.86113828 C2.27346742 86.00301049 2.27475323 92.14484836 2.26951766 98.2867251 C2.26639708 101.95719525 2.2659909 105.62761182 2.27259064 109.29807854 C2.27943394 113.39011265 2.26995206 117.48195004 2.25878906 121.57397461 C2.26283752 122.79434418 2.26688599 124.01471375 2.27105713 125.27206421 C2.26541748 126.38396622 2.25977783 127.49586823 2.25396729 128.64146423 C2.25321323 129.60951461 2.25245918 130.57756498 2.25168228 131.57495022 C2 134 2 134 0 137 C0 117.2 0 97.4 0 77 C-0.66 76.67 -1.32 76.34 -2 76 C-1.34 76 -0.68 76 0 76 C0 50.92 0 25.84 0 0 Z " fill="#536DCE" transform="translate(283,431)"/>
<path d="M0 0 C7.65807215 -0.04629168 15.31612984 -0.08185303 22.97430992 -0.10362434 C26.53012399 -0.11407224 30.0858425 -0.12824959 33.64160156 -0.15087891 C37.727223 -0.17671832 41.81274369 -0.18646444 45.8984375 -0.1953125 C47.17866791 -0.20563507 48.45889832 -0.21595764 49.77792358 -0.22659302 C50.95899689 -0.22674408 52.14007019 -0.22689514 53.35693359 -0.22705078 C54.92246475 -0.23371262 54.92246475 -0.23371262 56.5196228 -0.24050903 C59 0 59 0 61 2 C32.785 2.495 32.785 2.495 4 3 C4 6.63 4 10.26 4 14 C3.67 14.33 3.34 14.66 3 15 C2.87485589 17.70753726 2.81392872 20.39082104 2.79467773 23.09985352 C2.78477814 23.94856018 2.77487854 24.79726685 2.76467896 25.67169189 C2.73296753 28.49073449 2.70826861 31.30979398 2.68359375 34.12890625 C2.66303254 36.07804311 2.6420363 38.02717544 2.62062073 39.9763031 C2.56531402 45.11701793 2.5159428 50.25777357 2.46777344 55.39855957 C2.41762103 60.64009247 2.36190237 65.8815658 2.30664062 71.12304688 C2.19895394 81.41531375 2.09753247 91.70763225 2 102 C-0.66507314 98.06662111 -0.27377433 93.81443239 -0.24291992 89.25585938 C-0.24481827 88.37412552 -0.24671661 87.49239166 -0.24867249 86.5839386 C-0.25237597 83.67045184 -0.2416817 80.7572146 -0.23046875 77.84375 C-0.22927654 75.81880726 -0.22882387 73.79386397 -0.2290802 71.7689209 C-0.22751605 67.52543678 -0.2192317 63.2820371 -0.20581055 59.03857422 C-0.18882089 53.59771196 -0.18499628 48.1569425 -0.18575573 42.71605682 C-0.18548386 38.53480136 -0.17999997 34.35356621 -0.17275429 30.1723175 C-0.16957097 28.16604262 -0.167601 26.15976543 -0.16686058 24.15348816 C-0.16469347 21.35033241 -0.15594109 18.54727521 -0.14526367 15.74414062 C-0.14571686 14.9138887 -0.14617004 14.08363678 -0.14663696 13.22822571 C-0.1142254 7.41155468 -0.1142254 7.41155468 0.57085705 4.94319916 C1.2185395 2.8000045 1.2185395 2.8000045 0 0 Z " fill="#1C2840" transform="translate(352,431)"/>
<path d="M0 0 C10.56 0 21.12 0 32 0 C32 0.33 32 0.66 32 1 C21.77 1 11.54 1 1 1 C1.33 1.66 1.66 2.32 2 3 C2.08977728 4.51164392 2.11757433 6.02720179 2.11352539 7.54150391 C2.11344986 8.48232819 2.11337433 9.42315247 2.11329651 10.39248657 C2.10813522 11.41023163 2.10297394 12.42797668 2.09765625 13.4765625 C2.0962413 14.51694672 2.09482635 15.55733093 2.09336853 16.62924194 C2.08775866 19.96119021 2.07520447 23.29307195 2.0625 26.625 C2.05748627 28.88020736 2.05292314 31.13541578 2.04882812 33.390625 C2.03778603 38.92710614 2.02103827 44.46354832 2 50 C-1.20726702 50.2276125 -4.4156823 50.42860225 -7.625 50.625 C-8.52863281 50.68945312 -9.43226563 50.75390625 -10.36328125 50.8203125 C-11.24628906 50.871875 -12.12929688 50.9234375 -13.0390625 50.9765625 C-13.84553223 51.02893066 -14.65200195 51.08129883 -15.48291016 51.13525391 C-18 51 -18 51 -24 49 C-23.67 38.77 -23.34 28.54 -23 18 C-22.67 18 -22.34 18 -22 18 C-21.67 13.71 -21.34 9.42 -21 5 C-20.67 5 -20.34 5 -20 5 C-20 19.19 -20 33.38 -20 48 C-13.4 48 -6.8 48 0 48 C0 32.16 0 16.32 0 0 Z " fill="#0C121C" transform="translate(376,516)"/>
<path d="M0 0 C0.98226562 -0.00257813 1.96453125 -0.00515625 2.9765625 -0.0078125 C5.375 0.125 5.375 0.125 6.375 1.125 C6.44820163 3.6577765 6.46727569 6.15603918 6.4375 8.6875 C6.4065625 12.3690625 6.4065625 12.3690625 6.375 16.125 C1.425 16.125 -3.525 16.125 -8.625 16.125 C-8.625 11.175 -8.625 6.225 -8.625 1.125 C-5.50870851 0.08623617 -3.2655571 -0.00861625 0 0 Z " fill="#5977DD" transform="translate(139.625,432.875)"/>
<path d="M0 0 C0.33 0.66 0.66 1.32 1 2 C2.670625 1.7215625 2.670625 1.7215625 4.375 1.4375 C8 1 8 1 10 2 C10 6.62 10 11.24 10 16 C7.66062093 17.16968953 6.22630632 17.13364221 3.625 17.125 C2.85414063 17.12757813 2.08328125 17.13015625 1.2890625 17.1328125 C-0.9650481 17.00202793 -2.86727374 16.74222632 -5 16 C-6.32229189 13.35541621 -6.09677194 11.32238699 -6.0625 8.375 C-6.05347656 7.37210937 -6.04445312 6.36921875 -6.03515625 5.3359375 C-6.02355469 4.56507813 -6.01195312 3.79421875 -6 3 C-4.02 2.01 -2.04 1.02 0 0 Z " fill="#5A77DE" transform="translate(159,458)"/>
<path d="M0 0 C0.66 0 1.32 0 2 0 C2.02505615 0.71655762 2.0501123 1.43311523 2.07592773 2.17138672 C2.19169751 5.40611514 2.31450969 8.64053841 2.4375 11.875 C2.47681641 13.00292969 2.51613281 14.13085938 2.55664062 15.29296875 C2.59853516 16.36933594 2.64042969 17.44570313 2.68359375 18.5546875 C2.72025146 19.54968262 2.75690918 20.54467773 2.79467773 21.56982422 C2.84959532 24.00779501 2.84959532 24.00779501 4 26 C4.85722656 25.98839844 5.71445312 25.97679687 6.59765625 25.96484375 C8.31275391 25.95130859 8.31275391 25.95130859 10.0625 25.9375 C11.18785156 25.92589844 12.31320312 25.91429687 13.47265625 25.90234375 C17 26 17 26 24 27 C24 33.6 24 40.2 24 47 C16.74 47 9.48 47 2 47 C1.67 47.99 1.34 48.98 1 50 C0.4375 48.0625 0.4375 48.0625 0 46 C1 45 1 45 3.04125977 44.88647461 C4.35308228 44.89432983 4.35308228 44.89432983 5.69140625 44.90234375 C6.63564453 44.90556641 7.57988281 44.90878906 8.55273438 44.91210938 C9.54595703 44.92048828 10.53917969 44.92886719 11.5625 44.9375 C12.55958984 44.94201172 13.55667969 44.94652344 14.58398438 44.95117188 C17.05601487 44.96299977 19.52801472 44.98093585 22 45 C22 39.72 22 34.44 22 29 C11.11 29.495 11.11 29.495 0 30 C0 20.1 0 10.2 0 0 Z " fill="#060910" transform="translate(905,442)"/>
<path d="M0 0 C1.98 0 3.96 0 6 0 C4.68 0.33 3.36 0.66 2 1 C1.67 10.9 1.34 20.8 1 31 C-14.84 31.495 -14.84 31.495 -31 32 C-31.33 48.83 -31.66 65.66 -32 83 C-32.33 83 -32.66 83 -33 83 C-33.02526648 75.47030348 -33.04283141 67.9406178 -33.05493164 60.41088867 C-33.0599737 57.84708243 -33.06680714 55.28327909 -33.07543945 52.71948242 C-33.08751064 49.04344979 -33.09322942 45.36745502 -33.09765625 41.69140625 C-33.10281754 40.53725723 -33.10797882 39.38310822 -33.11329651 38.19398499 C-33.11337204 37.13296066 -33.11344757 36.07193634 -33.11352539 34.97875977 C-33.115746 34.03944107 -33.11796661 33.10012238 -33.12025452 32.13233948 C-33 30 -33 30 -32 29 C-29.70848583 28.91209025 -27.41427476 28.89305962 -25.12109375 28.90234375 C-24.09110008 28.90446617 -24.09110008 28.90446617 -23.04029846 28.90663147 C-20.83932199 28.91224521 -18.63844591 28.92479993 -16.4375 28.9375 C-14.94856917 28.94251324 -13.45963676 28.94707645 -11.97070312 28.95117188 C-8.31376925 28.96221907 -4.65689442 28.97949287 -1 29 C-1.00785522 27.78884521 -1.00785522 27.78884521 -1.01586914 26.55322266 C-1.03659929 22.91048962 -1.04964749 19.26776898 -1.0625 15.625 C-1.07087891 14.35398437 -1.07925781 13.08296875 -1.08789062 11.7734375 C-1.09272461 9.95585937 -1.09272461 9.95585937 -1.09765625 8.1015625 C-1.10551147 6.42054443 -1.10551147 6.42054443 -1.11352539 4.70556641 C-1 2 -1 2 0 0 Z " fill="#556FD1" transform="translate(166,493)"/>
<path d="M0 0 C1.12631836 0.07250977 1.12631836 0.07250977 2.27539062 0.14648438 C3.4287793 0.2305957 3.4287793 0.2305957 4.60546875 0.31640625 C5.78786133 0.3947168 5.78786133 0.3947168 6.99414062 0.47460938 C8.92748404 0.60349894 10.86029039 0.74040119 12.79296875 0.87890625 C12.79296875 1.20890625 12.79296875 1.53890625 12.79296875 1.87890625 C10.98171805 2.07811318 9.16884301 2.2625591 7.35546875 2.44140625 C5.84146484 2.59802734 5.84146484 2.59802734 4.296875 2.7578125 C0.79296875 2.87890625 0.79296875 2.87890625 -8.20703125 1.87890625 C-8.20703125 42.46890625 -8.20703125 83.05890625 -8.20703125 124.87890625 C-8.53703125 124.87890625 -8.86703125 124.87890625 -9.20703125 124.87890625 C-9.20703125 83.95890625 -9.20703125 43.03890625 -9.20703125 0.87890625 C-5.57896446 0.15329289 -3.47554528 -0.23877792 0 0 Z " fill="#4D68CE" transform="translate(220.20703125,455.12109375)"/>
<path d="M0 0 C7.17639861 1.57880769 11.60888049 4.63815823 15.6875 10.75 C20.93958869 19.81408854 22.41851542 28.8599244 20.3125 39.1875 C19.06075689 43.60057973 16.60226309 47.26545449 14 51 C13 48 13 48 13.7421875 46.08984375 C14.11601563 45.37957031 14.48984375 44.66929687 14.875 43.9375 C18.8355688 35.42502747 18.61109509 26.94060831 16 18 C14.82624246 15.5096703 13.48607172 13.32817902 12 11 C12 10.34 12 9.68 12 9 C11.42765625 8.73316406 10.8553125 8.46632813 10.265625 8.19140625 C7.90688039 6.95103193 5.876888 5.54054336 3.75 3.9375 C3.04359375 3.41027344 2.3371875 2.88304687 1.609375 2.33984375 C1.07828125 1.89769531 0.5471875 1.45554687 0 1 C0 0.67 0 0.34 0 0 Z " fill="#040810" transform="translate(755,488)"/>
<path d="M0 0 C0.33 0 0.66 0 1 0 C1 18.48 1 36.96 1 56 C-1.16536859 51.66926283 -1.18602682 49.74342998 -1.0625 45 C-0.97728805 40.37293538 -1.04226244 35.85410238 -1.5625 31.25 C-2.08655063 25.83234987 -1.91395245 20.54841526 -1.625 15.125 C-1.58189697 14.31579102 -1.53879395 13.50658203 -1.49438477 12.67285156 C-1.23426187 8.38816059 -0.80154254 4.22508016 0 0 Z " fill="#5B73CE" transform="translate(95,440)"/>
<path d="M0 0 C0.33 0.66 0.66 1.32 1 2 C2.670625 1.7215625 2.670625 1.7215625 4.375 1.4375 C8 1 8 1 10 2 C10 6.62 10 11.24 10 16 C7.66062093 17.16968953 6.22630632 17.13364221 3.625 17.125 C2.85414063 17.12757813 2.08328125 17.13015625 1.2890625 17.1328125 C-0.9650481 17.00202793 -2.86727374 16.74222632 -5 16 C-6.32229189 13.35541621 -6.09677194 11.32238699 -6.0625 8.375 C-6.05347656 7.37210937 -6.04445312 6.36921875 -6.03515625 5.3359375 C-6.02355469 4.56507813 -6.01195312 3.79421875 -6 3 C-4.02 2.01 -2.04 1.02 0 0 Z M-0.3125 3.4375 C-2.1378125 3.7159375 -2.1378125 3.7159375 -4 4 C-4 7.63 -4 11.26 -4 15 C-0.04 15 3.92 15 8 15 C8.33 11.37 8.66 7.74 9 4 C5.08610821 3.21722164 3.3447585 2.87961311 -0.3125 3.4375 Z " fill="#5670D1" transform="translate(159,458)"/>
<path d="M0 0 C0.33 0 0.66 0 1 0 C2.1361122 8.33148944 -2.23844847 15.24955001 -7.05078125 21.78515625 C-11.9053289 27.50196813 -17.17134705 31.82448275 -24 35 C-24.66 35 -25.32 35 -26 35 C-24.76670873 31.3001262 -23.35717292 31.06061376 -20.09375 29.26171875 C-8.87689917 22.50231051 -3.83148991 12.1793254 0 0 Z " fill="#050810" transform="translate(795,528)"/>
<path d="M0 0 C0.33 0 0.66 0 1 0 C1 14.19 1 28.38 1 43 C-0.98 43.495 -0.98 43.495 -3 44 C-2.67 33.77 -2.34 23.54 -2 13 C-1.67 13 -1.34 13 -1 13 C-0.67 8.71 -0.34 4.42 0 0 Z " fill="#151F34" transform="translate(355,521)"/>
<path d="M0 0 C1.48306641 0.02126953 1.48306641 0.02126953 2.99609375 0.04296875 C3.98738281 0.04941406 4.97867188 0.05585938 6 0.0625 C8.43359375 0.23046875 8.43359375 0.23046875 9.43359375 1.23046875 C9.50679538 3.76324525 9.52586944 6.26150793 9.49609375 8.79296875 C9.46515625 12.47453125 9.46515625 12.47453125 9.43359375 16.23046875 C4.48359375 16.23046875 -0.46640625 16.23046875 -5.56640625 16.23046875 C-5.56640625 11.94046875 -5.56640625 7.65046875 -5.56640625 3.23046875 C-5.23640625 3.23046875 -4.90640625 3.23046875 -4.56640625 3.23046875 C-4.23640625 6.86046875 -3.90640625 10.49046875 -3.56640625 14.23046875 C-0.26640625 14.23046875 3.03359375 14.23046875 6.43359375 14.23046875 C6.76359375 10.27046875 7.09359375 6.31046875 7.43359375 2.23046875 C3.47359375 2.23046875 -0.48640625 2.23046875 -4.56640625 2.23046875 C-2.56640625 0.23046875 -2.56640625 0.23046875 0 0 Z " fill="#576FCE" transform="translate(136.56640625,432.76953125)"/>
<path d="M0 0 C9.09736095 1.38854457 15.69064392 7.82519449 21 15 C24.17073171 20.15243902 24.17073171 20.15243902 23.5625 23.171875 C23.376875 23.77515625 23.19125 24.3784375 23 25 C22.57589844 24.20335937 22.15179688 23.40671875 21.71484375 22.5859375 C15.99316522 12.2491908 10.39933359 7.3293637 0 2 C0 1.34 0 0.68 0 0 Z " fill="#040812" transform="translate(422,435)"/>
<path d="M0 0 C0.66 0 1.32 0 2 0 C2.474375 1.19625 2.94875 2.3925 3.4375 3.625 C6.09262487 8.85198798 9.75275078 11.52662702 15 14 C18.95846209 15.25929466 22.92279049 16.21353319 27 17 C27 17.33 27 17.66 27 18 C19.17816546 18.74889905 13.52013982 17.46646411 7 13 C3.38678165 9.84851138 1.31605351 7.24163878 0.125 2.5625 C0.08375 1.716875 0.0425 0.87125 0 0 Z " fill="#04080F" transform="translate(886,548)"/>
<path d="M0 0 C2.59091115 2.35257808 4.20243521 4.84669064 5.9375 7.875 C9.88273004 14.53741054 13.59691869 18.69023373 20 23 C18.21484375 23.66015625 18.21484375 23.66015625 16 24 C8.7563778 19.83532236 2.81811032 11.77735475 0 4 C0 2.68 0 1.36 0 0 Z " fill="#040810" transform="translate(700,535)"/>
<path d="M0 0 C-1.65 0.66 -3.3 1.32 -5 2 C-5 2.66 -5 3.32 -5 4 C-9.20015816 5.0096534 -13.18641435 5.16593207 -17.5 5.1875 C-18.7890625 5.20167969 -20.078125 5.21585938 -21.40625 5.23046875 C-24.77147046 5.0146557 -26.99531954 4.46189261 -30 3 C-30 2.67 -30 2.34 -30 2 C-28.79601562 2.01160156 -27.59203125 2.02320313 -26.3515625 2.03515625 C-24.77604321 2.04453434 -23.20052225 2.05363452 -21.625 2.0625 C-20.43390625 2.07506836 -20.43390625 2.07506836 -19.21875 2.08789062 C-14.97607778 2.23040151 -14.97607778 2.23040151 -11 1 C-8.5 0.5 -8.5 0.5 -6 0 C-3.50907189 -1.24546405 -2.58919267 -0.7767578 0 0 Z " fill="#030710" transform="translate(765,543)"/>
<path d="M0 0 C0.33 0.66 0.66 1.32 1 2 C1.74685059 1.99476318 2.49370117 1.98952637 3.26318359 1.98413086 C6.63378057 1.96339599 10.00436414 1.95035101 13.375 1.9375 C15.1384375 1.92493164 15.1384375 1.92493164 16.9375 1.91210938 C18.61972656 1.90727539 18.61972656 1.90727539 20.3359375 1.90234375 C21.89127197 1.89448853 21.89127197 1.89448853 23.47802734 1.88647461 C26 2 26 2 28 3 C27.67 3.66 27.34 4.32 27 5 C26.32420898 4.99476318 25.64841797 4.98952637 24.95214844 4.98413086 C21.88477511 4.96331993 18.81741667 4.95032671 15.75 4.9375 C14.68652344 4.92912109 13.62304688 4.92074219 12.52734375 4.91210938 C11.50253906 4.90888672 10.47773437 4.90566406 9.421875 4.90234375 C8.47924805 4.89710693 7.53662109 4.89187012 6.56542969 4.88647461 C4.21876563 4.99031918 2.24355522 5.33293471 0 6 C-1.125 2.25 -1.125 2.25 0 0 Z " fill="#0D1524" transform="translate(502,466)"/>
<path d="M0 0 C0.33 0 0.66 0 1 0 C2.07225251 10.62678826 2.96604483 21.43250901 1 32 C0.34 31.67 -0.32 31.34 -1 31 C-1.02465622 26.74585377 -1.04283899 22.49174502 -1.05493164 18.23754883 C-1.05997101 16.78929927 -1.06680253 15.34105483 -1.07543945 13.89282227 C-1.08752247 11.81525412 -1.09323211 9.73775303 -1.09765625 7.66015625 C-1.10289307 6.40855713 -1.10812988 5.15695801 -1.11352539 3.86743164 C-1 1 -1 1 0 0 Z " fill="#010307" transform="translate(906,506)"/>
<path d="M0 0 C0.66 0.33 1.32 0.66 2 1 C2 10.9 2 20.8 2 31 C1.34 31.33 0.68 31.66 0 32 C-0.20005983 28.54227657 -0.38267635 25.08383018 -0.5625 21.625 C-0.61857422 20.65949219 -0.67464844 19.69398438 -0.73242188 18.69921875 C-1.05163996 12.3574194 -0.82870943 6.29611775 0 0 Z " fill="#000207" transform="translate(819,488)"/>
<path d="M0 0 C5.58061523 2.27358398 9.06898311 6.96400474 12.8125 11.5 C13.71935547 12.59828125 13.71935547 12.59828125 14.64453125 13.71875 C16.22114119 16.37217998 16.27244379 17.96572406 16 21 C12.30652142 17.67586928 9.56987769 13.70963307 8 9 C7.34 9 6.68 9 6 9 C3 5.53846154 3 5.53846154 3 3 C2.01 2.67 1.02 2.34 0 2 C0 1.34 0 0.68 0 0 Z " fill="#040810" transform="translate(777,476)"/>
<path d="M0 0 C0 3.74775631 -1.52194973 5.1892334 -3.6953125 8.10546875 C-6.28509177 11.86607637 -7.70084946 16.0497571 -9.0625 20.375 C-10 23 -10 23 -12 24 C-11.71182662 16.50749218 -9.05932716 10.28656861 -5 4 C-2.296875 1.640625 -2.296875 1.640625 0 0 Z " fill="#02060E" transform="translate(710,483)"/>
<path d="M0 0 C0.66 0 1.32 0 2 0 C0.55680261 4.04095268 -1.40488846 7.33033292 -3.8125 10.875 C-4.52019531 11.91914063 -5.22789062 12.96328125 -5.95703125 14.0390625 C-8.2677487 17.38805643 -10.60687705 20.70945594 -13 24 C-13.66 23.34 -14.32 22.68 -15 22 C-13.87851562 20.37191406 -13.87851562 20.37191406 -12.734375 18.7109375 C-11.73956039 17.2656408 -10.74477 15.82032741 -9.75 14.375 C-9.25886719 13.66214844 -8.76773438 12.94929688 -8.26171875 12.21484375 C-7.53662109 11.16103516 -7.53662109 11.16103516 -6.796875 10.0859375 C-6.32056641 9.3959668 -5.84425781 8.70599609 -5.35351562 7.99511719 C-4.11993705 6.17679033 -2.94167094 4.33227136 -1.765625 2.4765625 C-1.18296875 1.65929687 -0.6003125 0.84203125 0 0 Z " fill="#03060D" transform="translate(588,474)"/>
<path d="M0 0 C0.33 0 0.66 0 1 0 C1.05805933 4.24994263 1.09361654 8.49978324 1.125 12.75 C1.14175781 13.9565625 1.15851562 15.163125 1.17578125 16.40625 C1.18222656 17.56640625 1.18867187 18.7265625 1.1953125 19.921875 C1.20578613 20.99018555 1.21625977 22.05849609 1.22705078 23.15917969 C1.00161519 25.97979105 0.45848994 27.60787463 -1 30 C-2.51641138 20.0850025 -2.20217193 9.79779882 0 0 Z " fill="#02050C" transform="translate(820,530)"/>
<path d="M0 0 C9.57 0 19.14 0 29 0 C29 0.66 29 1.32 29 2 C19.20879681 2.75406186 9.78905055 3.22598899 0 2 C0 1.34 0 0.68 0 0 Z " fill="#000208" transform="translate(377,451)"/>
<path d="M0 0 C0.33 0 0.66 0 1 0 C1 8.25 1 16.5 1 25 C1.66 25.33 2.32 25.66 3 26 C3.05411124 28.41696872 3.09372278 30.83271787 3.125 33.25 C3.15013672 34.27287109 3.15013672 34.27287109 3.17578125 35.31640625 C3.21312151 39.16245258 2.86121729 41.66397731 1 45 C-0.16104917 35.43279779 -0.11587919 25.9298192 -0.0625 16.3125 C-0.05747247 14.72461079 -0.05291179 13.13672004 -0.04882812 11.54882812 C-0.03792755 7.69917975 -0.02073283 3.84960747 0 0 Z " fill="#526FD3" transform="translate(175,535)"/>
<path d="M0 0 C1.98 0 3.96 0 6 0 C6.02687279 1.81242052 6.04633715 3.62495233 6.0625 5.4375 C6.07410156 6.44683594 6.08570313 7.45617187 6.09765625 8.49609375 C6 11 6 11 5 12 C2.30720594 12.24101251 -0.36408884 12.42406175 -3.0625 12.5625 C-3.80177734 12.60568359 -4.54105469 12.64886719 -5.30273438 12.69335938 C-7.53479146 12.81638614 -9.76620813 12.91440473 -12 13 C-12.75007324 13.03206543 -13.50014648 13.06413086 -14.27294922 13.09716797 C-16.18161865 13.14590913 -18.09244787 13.08148361 -20 13 C-20.66 12.34 -21.32 11.68 -22 11 C-13.42 11 -4.84 11 4 11 C3.67 8.03 3.34 5.06 3 2 C2.01 1.34 1.02 0.68 0 0 Z " fill="#4A62C6" transform="translate(266,485)"/>
<path d="M0 0 C3 3 3 3 3.34057617 5.0847168 C3.32486572 5.86500244 3.30915527 6.64528809 3.29296875 7.44921875 C3.28330078 8.29677734 3.27363281 9.14433594 3.26367188 10.01757812 C3.23853516 10.89865234 3.21339844 11.77972656 3.1875 12.6875 C3.16719727 14.02651367 3.16719727 14.02651367 3.14648438 15.39257812 C3.11114079 17.59566166 3.06180493 19.79752582 3 22 C2.34 22 1.68 22 1 22 C0.67 22.66 0.34 23.32 0 24 C0 16.08 0 8.16 0 0 Z " fill="#040810" transform="translate(484,490)"/>
<path d="M0 0 C4.62558099 1.54186033 5.87629488 5.23227525 8.25 9.3125 C8.72179687 10.08529297 9.19359375 10.85808594 9.6796875 11.65429688 C10.12054687 12.40388672 10.56140625 13.15347656 11.015625 13.92578125 C11.42071289 14.61067627 11.82580078 15.29557129 12.24316406 16.0012207 C13.15804864 18.41740135 12.85601884 19.60575952 12 22 C10.36702257 19.46316052 8.74356724 16.92101073 7.125 14.375 C6.66480469 13.66214844 6.20460938 12.94929688 5.73046875 12.21484375 C3.21097367 8.23477182 1.25937436 4.58875487 0 0 Z " fill="#030710" transform="translate(534,480)"/>
<path d="M0 0 C4.64694358 4.28007961 6.84391196 7.16231946 7.1953125 13.55078125 C7.17210937 14.79214844 7.14890625 16.03351563 7.125 17.3125 C7.10695313 18.56675781 7.08890625 19.82101562 7.0703125 21.11328125 C7.04710937 22.06589844 7.02390625 23.01851563 7 24 C6.34 23.67 5.68 23.34 5 23 C4.7265625 20.55859375 4.7265625 20.55859375 4.625 17.4375 C4.25625063 11.59317037 2.84840167 8.05361586 0 3 C0 2.01 0 1.02 0 0 Z " fill="#040912" transform="translate(419,458)"/>
<path d="M0 0 C3.15727934 1.34389771 4.72502636 2.59938304 6.578125 5.4765625 C7.01640625 6.146875 7.4546875 6.8171875 7.90625 7.5078125 C8.57140625 8.55582031 8.57140625 8.55582031 9.25 9.625 C9.70890625 10.33140625 10.1678125 11.0378125 10.640625 11.765625 C11.76885159 13.50497433 12.88556445 15.25178241 14 17 C13.34 17.66 12.68 18.32 12 19 C7.37081413 12.8876769 3.16853475 6.99718091 0 0 Z " fill="#02050F" transform="translate(563,520)"/>
<path d="M0 0 C0 3.78013094 -1.18499884 5.17595412 -3.25 8.3125 C-3.88550781 9.28445313 -4.52101563 10.25640625 -5.17578125 11.2578125 C-6.07876953 12.61519531 -6.07876953 12.61519531 -7 14 C-7.44730469 14.67804688 -7.89460937 15.35609375 -8.35546875 16.0546875 C-9.23003029 17.37442296 -10.11362714 18.68816817 -11 20 C-11.82079806 17.67648549 -12.21133557 16.49645496 -11.22729492 14.18481445 C-10.81584229 13.5837085 -10.40438965 12.98260254 -9.98046875 12.36328125 C-9.53509766 11.70392578 -9.08972656 11.04457031 -8.63085938 10.36523438 C-7.91639648 9.34913086 -7.91639648 9.34913086 -7.1875 8.3125 C-6.72279297 7.62349609 -6.25808594 6.93449219 -5.77929688 6.22460938 C-2.30215735 1.15107867 -2.30215735 1.15107867 0 0 Z " fill="#02060E" transform="translate(562,479)"/>
<path d="M0 0 C4.24559192 0.04245592 6.90622847 0.42869277 10.25 3.25 C12.6794516 6.8941774 12.41179575 8.96241272 12.25 13.25 C10.25 10.25 10.25 10.25 9.75 7.75 C7.55870612 4.09784353 4.75121569 3.85329716 0.7578125 2.828125 C-0.48355469 2.54195313 -0.48355469 2.54195313 -1.75 2.25 C-3.08359705 1.9177233 -4.41703216 1.58479192 -5.75 1.25 C-4.11069007 -0.38930993 -2.25256326 0.03998633 0 0 Z " fill="#02050B" transform="translate(476.75,428.75)"/>
<path d="M0 0 C0.66 0.33 1.32 0.66 2 1 C2 2.32 2 3.64 2 5 C-2.29 5 -6.58 5 -11 5 C-11 11.27 -11 17.54 -11 24 C-11.66 23.67 -12.32 23.34 -13 23 C-12.67 16.73 -12.34 10.46 -12 4 C-9.47946405 2.73973202 -8.1457902 3.08125555 -5.375 3.4375 C-4.14910156 3.59025391 -4.14910156 3.59025391 -2.8984375 3.74609375 C-2.27195312 3.82988281 -1.64546875 3.91367187 -1 4 C-0.67 2.68 -0.34 1.36 0 0 Z " fill="#0D1727" transform="translate(882,465)"/>
<path d="M0 0 C0.66 0 1.32 0 2 0 C2.35098791 3.77312005 2.30640454 5.53511035 0.1875 8.75 C-2.26471358 11.27227683 -3.89374304 12.91289315 -7.48046875 13.1953125 C-8.37378906 13.17210937 -9.26710938 13.14890625 -10.1875 13.125 C-11.08855469 13.10695313 -11.98960937 13.08890625 -12.91796875 13.0703125 C-13.60503906 13.04710937 -14.29210937 13.02390625 -15 13 C-15 12.67 -15 12.34 -15 12 C-13.98679687 11.74476563 -13.98679687 11.74476563 -12.953125 11.484375 C-6.03020705 9.76454323 -6.03020705 9.76454323 -1 5 C-0.20318682 2.35815459 -0.20318682 2.35815459 0 0 Z " fill="#03060D" transform="translate(487,443)"/>
<path d="M0 0 C6.74233419 -0.12910853 13.30386804 0.202163 20 1 C20 1.66 20 2.32 20 3 C17.79194476 3.0544452 15.58349446 3.09299283 13.375 3.125 C12.14523437 3.14820313 10.91546875 3.17140625 9.6484375 3.1953125 C6.05683959 3.0030428 3.33338825 2.30258556 0 1 C0 0.67 0 0.34 0 0 Z " fill="#050912" transform="translate(734,565)"/>
<path d="M0 0 C0.33 0.99 0.66 1.98 1 3 C-0.16822123 4.43524323 -1.34662334 5.86395801 -2.5859375 7.23828125 C-4.97231828 10.21136891 -6.39594065 13.55424288 -8 17 C-8.66 17 -9.32 17 -10 17 C-8.25607562 10.74739306 -6.10699576 6.05476401 -2 1 C-1.34 0.67 -0.68 0.34 0 0 Z " fill="#02060F" transform="translate(730,491)"/>
<path d="M0 0 C0.33 0 0.66 0 1 0 C2.97804822 7.38907269 3.54341161 14.44475125 2 22 C1.34 22.33 0.68 22.66 0 23 C0 15.41 0 7.82 0 0 Z " fill="#010309" transform="translate(484,537)"/>
<path d="M0 0 C0.33 0 0.66 0 1 0 C1 5.94 1 11.88 1 18 C-2.67733219 18.91933305 -4.59899538 18.99485581 -8.25 18.5625 C-9.14203125 18.46066406 -10.0340625 18.35882813 -10.953125 18.25390625 C-11.62859375 18.17011719 -12.3040625 18.08632813 -13 18 C-13 17.67 -13 17.34 -13 17 C-9.04 16.67 -5.08 16.34 -1 16 C-0.67 10.72 -0.34 5.44 0 0 Z " fill="#0C1422" transform="translate(863,431)"/>
<path d="M0 0 C0.33 0 0.66 0 1 0 C0.979375 1.299375 0.95875 2.59875 0.9375 3.9375 C0.91813541 8.02988272 1.31509822 11.92209916 1.9765625 15.95703125 C2.00520618 18.45380558 1.25266299 19.87238538 0 22 C-0.33 20.35 -0.66 18.7 -1 17 C-1.33 17 -1.66 17 -2 17 C-2.21824777 10.9981863 -1.5056904 5.80766296 0 0 Z " fill="#0A131F" transform="translate(690,543)"/>
<path d="M0 0 C0.33 0 0.66 0 1 0 C1.84681133 5.08086796 2.09038099 9.84828377 2 15 C1.34 15 0.68 15 0 15 C0 17.31 0 19.62 0 22 C-0.33 22 -0.66 22 -1 22 C-1.02887814 18.52085059 -1.04675687 15.04173169 -1.0625 11.5625 C-1.07087891 10.56927734 -1.07925781 9.57605469 -1.08789062 8.55273438 C-1.09111328 7.60849609 -1.09433594 6.66425781 -1.09765625 5.69140625 C-1.10289307 4.81685791 -1.10812988 3.94230957 -1.11352539 3.04125977 C-1 1 -1 1 0 0 Z " fill="#010309" transform="translate(485,514)"/>
<path d="M0 0 C3.92488093 3.70060202 7.02215543 7.4906925 10 12 C10 12.66 10 13.32 10 14 C7.625 13.3125 7.625 13.3125 5 12 C3.875 9.625 3.875 9.625 3 7 C2.195625 5.948125 2.195625 5.948125 1.375 4.875 C0 3 0 3 0 0 Z " fill="#03070F" transform="translate(519,494)"/>
<path d="M0 0 C3.63 0 7.26 0 11 0 C12.20577428 4.94367454 11.6290678 8.20862412 10 13 C9.67 13 9.34 13 9 13 C9 9.37 9 5.74 9 2 C6.03 1.67 3.06 1.34 0 1 C0 0.67 0 0.34 0 0 Z " fill="#030810" transform="translate(853,469)"/>
<path d="M0 0 C-0.53625 0.2475 -1.0725 0.495 -1.625 0.75 C-6.03249573 3.06973459 -10.0575835 5.96737193 -14 9 C-13.7416116 5.51175659 -12.73533264 4.75785753 -10.0625 2.3125 C-5.93550365 -0.80380336 -4.93368518 -1.16850438 0 0 Z " fill="#04070F" transform="translate(838,432)"/>
<path d="M0 0 C0.33 0 0.66 0 1 0 C2.55690525 5.67434063 3.44272298 10.2291081 2 16 C1.34 16.33 0.68 16.66 0 17 C0 11.39 0 5.78 0 0 Z " fill="#02060E" transform="translate(484,471)"/>
<path d="M0 0 C0.66 0.66 1.32 1.32 2 2 C3.92901141 2.45974503 3.92901141 2.45974503 6.1328125 2.6328125 C7.34130859 2.75849609 7.34130859 2.75849609 8.57421875 2.88671875 C9.83685547 3.00466797 9.83685547 3.00466797 11.125 3.125 C12.39923828 3.25455078 12.39923828 3.25455078 13.69921875 3.38671875 C15.79869727 3.59902557 17.89926242 3.80053603 20 4 C20 4.33 20 4.66 20 5 C17.24973583 5.05404449 14.50053797 5.09369306 11.75 5.125 C10.97269531 5.14175781 10.19539062 5.15851562 9.39453125 5.17578125 C2.27568856 5.23662606 2.27568856 5.23662606 -1 3 C-0.67 2.01 -0.34 1.02 0 0 Z " fill="#526CCD" transform="translate(244,582)"/>
<path d="M0 0 C0.33 0.66 0.66 1.32 1 2 C-1.31537955 5.72114571 -3.28579473 8.61229661 -7 11 C-7.66 10.67 -8.32 10.34 -9 10 C-8.06409496 8.8944811 -7.12620142 7.79064547 -6.1875 6.6875 C-5.66542969 6.07261719 -5.14335937 5.45773437 -4.60546875 4.82421875 C-3.12827531 3.14575321 -1.59960869 1.56117966 0 0 Z " fill="#02050D" transform="translate(424,483)"/>
<path d="M0 0 C1.7290774 -0.02725341 3.45828176 -0.04650987 5.1875 -0.0625 C6.15042969 -0.07410156 7.11335937 -0.08570313 8.10546875 -0.09765625 C10.85576513 -0.00486622 13.32479591 0.37888315 16 1 C12.34833214 3.43444524 8.25236474 3.77240219 4 3 C1.75 1.48046875 1.75 1.48046875 0 0 Z " fill="#111723" transform="translate(844,428)"/>
<path d="M0 0 C0.33 0.99 0.66 1.98 1 3 C-0.43359375 5.69921875 -0.43359375 5.69921875 -2.4375 8.6875 C-3.42556641 10.17830078 -3.42556641 10.17830078 -4.43359375 11.69921875 C-5.20896484 12.83810547 -5.20896484 12.83810547 -6 14 C-6.71484375 12.328125 -6.71484375 12.328125 -7 10 C-5.56640625 7.421875 -5.56640625 7.421875 -3.5625 4.75 C-2.90378906 3.85796875 -2.24507812 2.9659375 -1.56640625 2.046875 C-1.04949219 1.37140625 -0.53257812 0.6959375 0 0 Z " fill="#050911" transform="translate(535,549)"/>
<path d="M0 0 C0.33 2.31 0.66 4.62 1 7 C0.01 7.495 0.01 7.495 -1 8 C-1 6.35 -1 4.7 -1 3 C-6.94 2.01 -6.94 2.01 -13 1 C-13 0.67 -13 0.34 -13 0 C-8.34462607 -0.83796731 -4.62921525 -1.0161692 0 0 Z " fill="#0D1523" transform="translate(486,468)"/>
<path d="M0 0 C1.98 0 3.96 0 6 0 C6 3.63 6 7.26 6 11 C5.01 11.495 5.01 11.495 4 12 C3.96261719 11.30132812 3.92523438 10.60265625 3.88671875 9.8828125 C3.82097656 8.97273438 3.75523437 8.06265625 3.6875 7.125 C3.62949219 6.22007812 3.57148438 5.31515625 3.51171875 4.3828125 C3.2117961 1.63778399 3.2117961 1.63778399 0 0 Z " fill="#506BCE" transform="translate(266,485)"/>
<path d="M0 0 C0 0.66 0 1.32 0 2 C-1.45381897 2.69699552 -2.91322953 3.38233866 -4.375 4.0625 C-5.18710937 4.44535156 -5.99921875 4.82820313 -6.8359375 5.22265625 C-7.55007813 5.47917969 -8.26421875 5.73570312 -9 6 C-9.66 5.67 -10.32 5.34 -11 5 C-7.56138316 1.21752148 -5.17193751 0 0 0 Z " fill="#03060D" transform="translate(730,470)"/>
<path d="M0 0 C0.99 0 1.98 0 3 0 C3.2475 0.5775 3.495 1.155 3.75 1.75 C5.16683317 4.3002997 6.87627537 6.01785701 9 8 C5.41209425 7.70100785 4.21833224 7.23013399 1.6875 4.5625 C0 2 0 2 0 0 Z " fill="#040811" transform="translate(461,447)"/>
<path d="M0 0 C0.66 0.33 1.32 0.66 2 1 C2 4.96 2 8.92 2 13 C1.01 13.495 1.01 13.495 0 14 C-0.91297308 9.02936879 -0.91297308 4.97063121 0 0 Z " fill="#070E17" transform="translate(485,529)"/>
<path d="M0 0 C2.5 2.25 2.5 2.25 5 5 C5 6.32 5 7.64 5 9 C4.01 9 3.02 9 2 9 C1.34 6.03 0.68 3.06 0 0 Z " fill="#01060F" transform="translate(531,511)"/>
<path d="M0 0 C0.144375 0.598125 0.28875 1.19625 0.4375 1.8125 C0.8872439 3.56150404 1.42892341 5.28677023 2 7 C0.35 7 -1.3 7 -3 7 C-1.125 1.125 -1.125 1.125 0 0 Z " fill="#090E17" transform="translate(486,558)"/>
<path d="M0 0 C3.82097239 0.53069061 6.06171403 1.49701566 9 4 C2.25 3.125 2.25 3.125 0 2 C0 1.34 0 0.68 0 0 Z " fill="#03060C" transform="translate(721,560)"/>
<path d="M0 0 C4.14648122 2.07324061 5.08477197 2.96794098 7 7 C6.67 7.66 6.34 8.32 6 9 C4.02 6.03 2.04 3.06 0 0 Z " fill="#506ACC" transform="translate(275,419)"/>
<path d="M0 0 C0.66 0.33 1.32 0.66 2 1 C1.01 1.66 0.02 2.32 -1 3 C-0.67 2.01 -0.34 1.02 0 0 Z " fill="#0F1A2E" transform="translate(845,465)"/>
<path d="M0 0 C4 1 4 1 4 1 Z " fill="#1B2437" transform="translate(820,567)"/>
<path d="M0 0 C0.99 1.485 0.99 1.485 2 3 C1.34 3 0.68 3 0 3 C0 2.01 0 1.02 0 0 Z " fill="#182032" transform="translate(844,559)"/>
<path d="M0 0 C1 4 1 4 1 4 Z " fill="#101B2D" transform="translate(844,534)"/>
<path d="M0 0 C0.99 0.495 0.99 0.495 2 1 C1.01 1.495 1.01 1.495 0 2 C0 1.34 0 0.68 0 0 Z " fill="#162335" transform="translate(496,565)"/>
<path d="M0 0 C3 1 3 1 3 1 Z " fill="#162133" transform="translate(496,563)"/>
<path d="M0 0 C3 1 3 1 3 1 Z " fill="#101C31" transform="translate(379,519)"/>
<path d="M0 0 C3 1 3 1 3 1 Z " fill="#18263A" transform="translate(744,464)"/>
<path d="M0 0 C2 1 2 1 2 1 Z " fill="#1B263A" transform="translate(924,567)"/>
<path d="M0 0 C2 1 2 1 2 1 Z " fill="#1B2735" transform="translate(840,567)"/>
<path d="M0 0 C2 1 2 1 2 1 Z " fill="#131E33" transform="translate(620,567)"/>
<path d="M0 0 C2 1 2 1 2 1 Z " fill="#131F32" transform="translate(617,567)"/>
<path d="M0 0 C2 1 2 1 2 1 Z " fill="#152234" transform="translate(612,567)"/>
<path d="M0 0 C2 1 2 1 2 1 Z " fill="#1B273A" transform="translate(484,567)"/>
<path d="M0 0 C2 1 2 1 2 1 Z " fill="#1E2B40" transform="translate(462,567)"/>
<path d="" fill="#192537" transform="translate(0,0)"/>
<path d="" fill="#121F31" transform="translate(0,0)"/>
<path d="M0 0 C2 1 2 1 2 1 Z " fill="#0D1C2D" transform="translate(747,544)"/>
<path d="M0 0 C2 1 2 1 2 1 Z " fill="#0B192D" transform="translate(744,544)"/>
<path d="" fill="#0D172B" transform="translate(0,0)"/>
<path d="" fill="#0C1B2E" transform="translate(0,0)"/>
<path d="" fill="#101C30" transform="translate(0,0)"/>
<path d="" fill="#101A2D" transform="translate(0,0)"/>
<path d="" fill="#131D2D" transform="translate(0,0)"/>
<path d="M0 0 C2 1 2 1 2 1 Z " fill="#1A2739" transform="translate(755,465)"/>
<path d="" fill="#142237" transform="translate(0,0)"/>
<path d="M0 0 C2 1 2 1 2 1 Z " fill="#6F86DD" transform="translate(212,415)"/>
<path d="" fill="#7084D4" transform="translate(0,0)"/>
<path d="" fill="#7487D6" transform="translate(0,0)"/>
<path d="" fill="#7B90D6" transform="translate(0,0)"/>
<path d="" fill="#7A8FD3" transform="translate(0,0)"/>
<path d="" fill="#7A90D6" transform="translate(0,0)"/>
<path d="" fill="#7B8FD6" transform="translate(0,0)"/>
<path d="" fill="#6F85DB" transform="translate(0,0)"/>
<path d="" fill="#6C83DC" transform="translate(0,0)"/>
<path d="" fill="#6E86DB" transform="translate(0,0)"/>
<path d="" fill="#6D87DF" transform="translate(0,0)"/>
<path d="" fill="#7286DE" transform="translate(0,0)"/>
<path d="" fill="#7289DB" transform="translate(0,0)"/>
<path d="" fill="#1F2A37" transform="translate(0,0)"/>
<path d="" fill="#1D2937" transform="translate(0,0)"/>
<path d="" fill="#141D31" transform="translate(0,0)"/>
<path d="" fill="#141D31" transform="translate(0,0)"/>
<path d="" fill="#131E2F" transform="translate(0,0)"/>
<path d="" fill="#101D30" transform="translate(0,0)"/>
<path d="" fill="#141E2F" transform="translate(0,0)"/>
<path d="" fill="#131E30" transform="translate(0,0)"/>
<path d="" fill="#121D30" transform="translate(0,0)"/>
<path d="" fill="#111C31" transform="translate(0,0)"/>
<path d="" fill="#131C31" transform="translate(0,0)"/>
<path d="" fill="#131E32" transform="translate(0,0)"/>
<path d="" fill="#131F34" transform="translate(0,0)"/>
<path d="" fill="#121D31" transform="translate(0,0)"/>
<path d="" fill="#182133" transform="translate(0,0)"/>
<path d="" fill="#172132" transform="translate(0,0)"/>
<path d="" fill="#131D32" transform="translate(0,0)"/>
<path d="" fill="#142136" transform="translate(0,0)"/>
<path d="" fill="#152137" transform="translate(0,0)"/>
<path d="" fill="#162336" transform="translate(0,0)"/>
<path d="" fill="#1D263A" transform="translate(0,0)"/>
<path d="" fill="#28364E" transform="translate(0,0)"/>
<path d="" fill="#384567" transform="translate(0,0)"/>
<path d="" fill="#192336" transform="translate(0,0)"/>
<path d="" fill="#25344B" transform="translate(0,0)"/>
<path d="" fill="#1A2635" transform="translate(0,0)"/>
<path d="" fill="#162034" transform="translate(0,0)"/>
<path d="" fill="#1C2739" transform="translate(0,0)"/>
<path d="" fill="#132033" transform="translate(0,0)"/>
<path d="" fill="#273047" transform="translate(0,0)"/>
<path d="" fill="#161F32" transform="translate(0,0)"/>
<path d="" fill="#182233" transform="translate(0,0)"/>
<path d="" fill="#121D30" transform="translate(0,0)"/>
<path d="" fill="#6A82D9" transform="translate(0,0)"/>
<path d="" fill="#142035" transform="translate(0,0)"/>
<path d="" fill="#101D31" transform="translate(0,0)"/>
<path d="" fill="#0D1A30" transform="translate(0,0)"/>
<path d="" fill="#121F30" transform="translate(0,0)"/>
<path d="" fill="#141F30" transform="translate(0,0)"/>
<path d="" fill="#0E1C2F" transform="translate(0,0)"/>
<path d="" fill="#0F1B2F" transform="translate(0,0)"/>
<path d="" fill="#6A82DD" transform="translate(0,0)"/>
<path d="" fill="#121F2F" transform="translate(0,0)"/>
<path d="" fill="#0F172D" transform="translate(0,0)"/>
<path d="" fill="#7A8EDA" transform="translate(0,0)"/>
<path d="" fill="#0E1A2C" transform="translate(0,0)"/>
<path d="" fill="#1D2837" transform="translate(0,0)"/>
<path d="" fill="#0D1B2B" transform="translate(0,0)"/>
<path d="" fill="#0D192D" transform="translate(0,0)"/>
<path d="" fill="#7990D9" transform="translate(0,0)"/>
<path d="" fill="#0F1E33" transform="translate(0,0)"/>
<path d="" fill="#0E192D" transform="translate(0,0)"/>
<path d="" fill="#101B30" transform="translate(0,0)"/>
<path d="" fill="#0D1C34" transform="translate(0,0)"/>
<path d="" fill="#0F1B2E" transform="translate(0,0)"/>
<path d="" fill="#6A82DF" transform="translate(0,0)"/>
<path d="" fill="#0E172A" transform="translate(0,0)"/>
<path d="" fill="#122036" transform="translate(0,0)"/>
<path d="" fill="#6C84DD" transform="translate(0,0)"/>
<path d="" fill="#0E1A2C" transform="translate(0,0)"/>
<path d="" fill="#121E2F" transform="translate(0,0)"/>
<path d="" fill="#111C30" transform="translate(0,0)"/>
<path d="" fill="#0E1B2F" transform="translate(0,0)"/>
<path d="" fill="#0F1C2C" transform="translate(0,0)"/>
<path d="" fill="#121D30" transform="translate(0,0)"/>
<path d="" fill="#111B2D" transform="translate(0,0)"/>
<path d="" fill="#111C2D" transform="translate(0,0)"/>
<path d="" fill="#132035" transform="translate(0,0)"/>
<path d="" fill="#0D192D" transform="translate(0,0)"/>
<path d="" fill="#0E1A2F" transform="translate(0,0)"/>
<path d="" fill="#748BE1" transform="translate(0,0)"/>
<path d="" fill="#7086DD" transform="translate(0,0)"/>
<path d="" fill="#0E1C2F" transform="translate(0,0)"/>
<path d="" fill="#0F1F30" transform="translate(0,0)"/>
<path d="" fill="#101A2F" transform="translate(0,0)"/>
<path d="" fill="#6B87E0" transform="translate(0,0)"/>
<path d="" fill="#6D86DA" transform="translate(0,0)"/>
<path d="" fill="#6C86DD" transform="translate(0,0)"/>
<path d="" fill="#7085DE" transform="translate(0,0)"/>
<path d="" fill="#7187DC" transform="translate(0,0)"/>
<path d="" fill="#0B172A" transform="translate(0,0)"/>
<path d="" fill="#122034" transform="translate(0,0)"/>
<path d="" fill="#0F1B2B" transform="translate(0,0)"/>
<path d="" fill="#0D1A2E" transform="translate(0,0)"/>
<path d="" fill="#0D182D" transform="translate(0,0)"/>
<path d="" fill="#0C182C" transform="translate(0,0)"/>
<path d="" fill="#0F1E33" transform="translate(0,0)"/>
<path d="" fill="#0F1B2E" transform="translate(0,0)"/>
<path d="" fill="#0C192F" transform="translate(0,0)"/>
<path d="" fill="#788EDB" transform="translate(0,0)"/>
<path d="" fill="#0A1729" transform="translate(0,0)"/>
<path d="" fill="#0D1B2C" transform="translate(0,0)"/>
<path d="" fill="#101B2F" transform="translate(0,0)"/>
<path d="" fill="#6D83DE" transform="translate(0,0)"/>
<path d="" fill="#0E1B30" transform="translate(0,0)"/>
<path d="" fill="#0F1B2B" transform="translate(0,0)"/>
<path d="" fill="#0B182A" transform="translate(0,0)"/>
<path d="" fill="#0D1C2F" transform="translate(0,0)"/>
<path d="" fill="#6F85DD" transform="translate(0,0)"/>
<path d="" fill="#0C182A" transform="translate(0,0)"/>
<path d="" fill="#0F1B2A" transform="translate(0,0)"/>
<path d="" fill="#0E1A2D" transform="translate(0,0)"/>
<path d="" fill="#0C182C" transform="translate(0,0)"/>
<path d="" fill="#6E84DB" transform="translate(0,0)"/>
<path d="" fill="#0D1A2E" transform="translate(0,0)"/>
<path d="" fill="#798DDA" transform="translate(0,0)"/>
<path d="" fill="#0E1A2E" transform="translate(0,0)"/>
<path d="" fill="#0D192A" transform="translate(0,0)"/>
<path d="" fill="#0D192C" transform="translate(0,0)"/>
<path d="" fill="#0D192D" transform="translate(0,0)"/>
<path d="" fill="#0C1928" transform="translate(0,0)"/>
<path d="" fill="#0E192C" transform="translate(0,0)"/>
<path d="" fill="#7189E3" transform="translate(0,0)"/>
<path d="" fill="#0E1B30" transform="translate(0,0)"/>
<path d="" fill="#101B2F" transform="translate(0,0)"/>
<path d="" fill="#0C1A2A" transform="translate(0,0)"/>
<path d="" fill="#0D182C" transform="translate(0,0)"/>
<path d="" fill="#0A162B" transform="translate(0,0)"/>
<path d="" fill="#0E1E31" transform="translate(0,0)"/>
<path d="" fill="#0F192A" transform="translate(0,0)"/>
<path d="" fill="#0D192C" transform="translate(0,0)"/>
<path d="" fill="#121C2F" transform="translate(0,0)"/>
<path d="" fill="#11182D" transform="translate(0,0)"/>
<path d="" fill="#0E192C" transform="translate(0,0)"/>
<path d="" fill="#0F1C2C" transform="translate(0,0)"/>
<path d="" fill="#7084DD" transform="translate(0,0)"/>
<path d="" fill="#111D30" transform="translate(0,0)"/>
<path d="" fill="#0E1C31" transform="translate(0,0)"/>
<path d="" fill="#101D31" transform="translate(0,0)"/>
<path d="" fill="#0E1A2B" transform="translate(0,0)"/>
<path d="" fill="#111B30" transform="translate(0,0)"/>
<path d="" fill="#111E2E" transform="translate(0,0)"/>
<path d="" fill="#101A2E" transform="translate(0,0)"/>
<path d="" fill="#0D182E" transform="translate(0,0)"/>
<path d="" fill="#0D1A2D" transform="translate(0,0)"/>
<path d="" fill="#0D172C" transform="translate(0,0)"/>
<path d="" fill="#0F182C" transform="translate(0,0)"/>
<path d="" fill="#6B84DA" transform="translate(0,0)"/>
<path d="" fill="#0F1A2F" transform="translate(0,0)"/>
<path d="" fill="#0E182B" transform="translate(0,0)"/>
<path d="" fill="#7087E1" transform="translate(0,0)"/>
<path d="" fill="#7C8ED9" transform="translate(0,0)"/>
<path d="" fill="#12202F" transform="translate(0,0)"/>
<path d="" fill="#101D2F" transform="translate(0,0)"/>
<path d="" fill="#111E31" transform="translate(0,0)"/>
<path d="" fill="#141F32" transform="translate(0,0)"/>
<path d="" fill="#142134" transform="translate(0,0)"/>
<path d="" fill="#0F1C30" transform="translate(0,0)"/>
<path d="" fill="#111E30" transform="translate(0,0)"/>
<path d="" fill="#0F1B29" transform="translate(0,0)"/>
<path d="" fill="#111C2F" transform="translate(0,0)"/>
<path d="" fill="#121E30" transform="translate(0,0)"/>
<path d="" fill="#151D31" transform="translate(0,0)"/>
<path d="" fill="#0F1B2B" transform="translate(0,0)"/>
<path d="" fill="#6E86DE" transform="translate(0,0)"/>
<path d="" fill="#7084DF" transform="translate(0,0)"/>
<path d="" fill="#1A2235" transform="translate(0,0)"/>
<path d="" fill="#0B192D" transform="translate(0,0)"/>
<path d="" fill="#0E1E32" transform="translate(0,0)"/>
<path d="" fill="#0E1B2D" transform="translate(0,0)"/>
<path d="" fill="#6F86DC" transform="translate(0,0)"/>
<path d="" fill="#162638" transform="translate(0,0)"/>
<path d="" fill="#131F2F" transform="translate(0,0)"/>
<path d="" fill="#1A2538" transform="translate(0,0)"/>
<path d="" fill="#101D2E" transform="translate(0,0)"/>
<path d="" fill="#1C2838" transform="translate(0,0)"/>
<path d="" fill="#111C2E" transform="translate(0,0)"/>
<path d="" fill="#111F35" transform="translate(0,0)"/>
<path d="" fill="#1B2835" transform="translate(0,0)"/>
<path d="" fill="#6B84DC" transform="translate(0,0)"/>
<path d="" fill="#1A2539" transform="translate(0,0)"/>
<path d="" fill="#172637" transform="translate(0,0)"/>
<path d="" fill="#131E33" transform="translate(0,0)"/>
<path d="" fill="#1A243A" transform="translate(0,0)"/>
<path d="" fill="#1C283B" transform="translate(0,0)"/>
<path d="" fill="#162334" transform="translate(0,0)"/>
<path d="" fill="#6F84DD" transform="translate(0,0)"/>
<path d="" fill="#6C89E2" transform="translate(0,0)"/>
<path d="" fill="#7990D9" transform="translate(0,0)"/>
<path d="" fill="#6E85DF" transform="translate(0,0)"/>
<path d="" fill="#7389DE" transform="translate(0,0)"/>
<path d="" fill="#6F87DD" transform="translate(0,0)"/>
<path d="" fill="#112235" transform="translate(0,0)"/>
<path d="" fill="#6B84DB" transform="translate(0,0)"/>
<path d="" fill="#788CD9" transform="translate(0,0)"/>
<path d="" fill="#151F2F" transform="translate(0,0)"/>
<path d="" fill="#192535" transform="translate(0,0)"/>
<path d="" fill="#6B86DC" transform="translate(0,0)"/>
<path d="" fill="#1E2537" transform="translate(0,0)"/>
<path d="" fill="#1C2A3E" transform="translate(0,0)"/>
<path d="" fill="#1D2737" transform="translate(0,0)"/>
<path d="" fill="#132339" transform="translate(0,0)"/>
<path d="" fill="#18253B" transform="translate(0,0)"/>
<path d="" fill="#272F3F" transform="translate(0,0)"/>
<path d="" fill="#15253A" transform="translate(0,0)"/>
<path d="" fill="#16253C" transform="translate(0,0)"/>
<path d="" fill="#6F85DB" transform="translate(0,0)"/>
<path d="" fill="#758BDF" transform="translate(0,0)"/>
<path d="" fill="#1C273A" transform="translate(0,0)"/>
<path d="" fill="#7287D9" transform="translate(0,0)"/>
<path d="" fill="#1D2A3F" transform="translate(0,0)"/>
<path d="" fill="#1E2D42" transform="translate(0,0)"/>
<path d="" fill="#7289DE" transform="translate(0,0)"/>
<path d="" fill="#242F43" transform="translate(0,0)"/>
<path d="" fill="#1E293B" transform="translate(0,0)"/>
<path d="" fill="#7389DD" transform="translate(0,0)"/>
<path d="" fill="#1D2D40" transform="translate(0,0)"/>
<path d="" fill="#2A3345" transform="translate(0,0)"/>
<path d="" fill="#283146" transform="translate(0,0)"/>
<path d="" fill="#222C42" transform="translate(0,0)"/>
<path d="" fill="#28323E" transform="translate(0,0)"/>
<path d="" fill="#283242" transform="translate(0,0)"/>
<path d="" fill="#232F43" transform="translate(0,0)"/>
<path d="" fill="#2A343E" transform="translate(0,0)"/>
<path d="" fill="#6F88DD" transform="translate(0,0)"/>
<path d="" fill="#798EDD" transform="translate(0,0)"/>
<path d="" fill="#6D87DE" transform="translate(0,0)"/>
<path d="" fill="#6C83DE" transform="translate(0,0)"/>
<path d="" fill="#6E86DD" transform="translate(0,0)"/>
<path d="" fill="#6F86DC" transform="translate(0,0)"/>
<path d="" fill="#6E85DD" transform="translate(0,0)"/>
<path d="" fill="#7187DC" transform="translate(0,0)"/>
<path d="" fill="#7287DF" transform="translate(0,0)"/>
<path d="" fill="#7088DC" transform="translate(0,0)"/>
<path d="" fill="#6D85D6" transform="translate(0,0)"/>
<path d="" fill="#768DD5" transform="translate(0,0)"/>
<path d="" fill="#787977" transform="translate(0,0)"/>
</svg>
